<svg xmlns="http://www.w3.org/2000/svg" xmlns:xlink="http://www.w3.org/1999/xlink" viewBox="0 0 423.15 411.64"><defs><style>.cls-1,.cls-19,.cls-3,.cls-4,.cls-7,.cls-8,.cls-9{fill:none;}.cls-2{isolation:isolate;}.cls-3,.cls-8{stroke:#fc5d03;}.cls-19,.cls-3,.cls-4{stroke-linecap:round;stroke-linejoin:round;}.cls-19,.cls-3{stroke-width:5px;}.cls-4,.cls-7{stroke:#f9b312;}.cls-4{stroke-width:7px;}.cls-5{fill:#fc5d03;}.cls-6{fill:#1d2486;}.cls-7,.cls-8,.cls-9{stroke-miterlimit:10;stroke-width:4px;}.cls-9{stroke:#fe8aa6;}.cls-10{fill:url(#Безымянный_градиент_19);}.cls-11{fill:#fff;}.cls-12{fill:#68d391;}.cls-13{fill:url(#Безымянный_градиент_11);}.cls-14{fill:#9ae6b4;}.cls-15{fill:#9e7eff;}.cls-16{fill:#6f54c2;}.cls-17{clip-path:url(#clip-path);}.cls-18{opacity:0.1;mix-blend-mode:darken;}.cls-19{stroke:#2830a6;}</style><linearGradient id="Безымянный_градиент_19" x1="159.18" y1="245.3" x2="-96.13" y2="108.53" gradientUnits="userSpaceOnUse"><stop offset="0" stop-color="#f96"/><stop offset="1" stop-color="#ff5e62"/></linearGradient><linearGradient id="Безымянный_градиент_11" x1="392.14" y1="194.82" x2="276.51" y2="62.99" gradientUnits="userSpaceOnUse"><stop offset="0" stop-color="#0f2027"/><stop offset="0.51" stop-color="#203a43"/><stop offset="1" stop-color="#2c5364"/></linearGradient><clipPath id="clip-path"><path class="cls-1" d="M402.32,297.8a6.8,6.8,0,0,0-.65-1.49c-5-8.63-27.13-5.12-49.38,7.83s-36.21,30.46-31.18,39.08a7.63,7.63,0,0,0,2.51,2.58l82.75,55.63A4.89,4.89,0,0,0,414,396.8Z"/></clipPath></defs><g class="cls-2"><g id="Слой_2" data-name="Слой 2"><g id="Слой_1-2" data-name="Слой 1"><path class="cls-3" d="M199.93,309.28c-.44-.41-4.08-3.95-3.18-8.12,1.13-5.19,8.19-8.15,12.85-7,7,1.79,8.52,9.16,8.75,10.24.75,3.5,2.72,8,4.43,9.59,2.85,2.67,7.53,4,11.52,1.76C238,313.74,239,310,240.52,304c1.83-7.06.57-9.25,3.34-12.22.54-.58,4.16-4.47,9.4-3.66a10.39,10.39,0,0,1,7.88,6.29l-4.56,29.86a6.66,6.66,0,0,0,2.31,4.17,9,9,0,0,0,8.64,1.32c2.36-.94,1.92-2.38,5.27-5.56,2.07-2,3.91-3.71,6.52-4.1,4.55-.67,8.81,3.19,9.7,4"/><path class="cls-4" d="M151.45,113.21c-.09-.8-.81-7.51,3.67-11,5.56-4.34,15.3-1.35,19,3.84,5.59,7.76.9,16.61.22,17.92-2.21,4.2-4,10.45-3.64,13.56.64,5.15,4.3,10.47,10.27,11.6,5.54,1,9.77-2,16.39-6.74,7.87-5.65,8.44-9,13.81-9.64,1-.13,8.06-1,12.71,4.27a13.77,13.77,0,0,1,2.69,13.13l-30.07,26.62a8.92,8.92,0,0,0-1.19,6.23,12,12,0,0,0,7.71,8.7c3.21,1,4-.79,10.11-1.19,3.78-.25,7.16-.47,10.15,1.36,5.21,3.19,6.28,10.75,6.48,12.37"/><circle class="cls-5" cx="160" cy="172.6" r="2"/><circle class="cls-5" cx="249.62" cy="69.65" r="2"/><circle class="cls-5" cx="313.77" cy="248.36" r="2"/><circle class="cls-5" cx="126.46" cy="279.87" r="2"/><circle class="cls-6" cx="186.03" cy="254.66" r="2"/><circle class="cls-7" cx="305.75" cy="79.96" r="7.5"/><circle class="cls-8" cx="88.5" cy="255.1" r="7.5"/><circle class="cls-9" cx="306.32" cy="248.94" r="7.5"/><circle class="cls-9" cx="166.5" cy="44.1" r="7.5"/><rect class="cls-10" y="108.6" width="144" height="180" rx="8"/><path class="cls-11" d="M17.78,162.52v-5.21a.8.8,0,0,0-.13-.47l-5.08-9.06h3.61c1.14,2.22,2.61,5.18,3.35,6.78.64-1.54,2.25-4.65,3.37-6.78h3.33l-5.14,9a.64.64,0,0,0-.12.47v5.26Z"/><path class="cls-11" d="M35.65,157c0,3.35-2,5.82-5.51,5.82s-5.43-2.45-5.43-5.76,2.06-5.82,5.58-5.82C33.55,151.2,35.65,153.5,35.65,157Zm-7.83,0c0,2.13.92,3.39,2.39,3.39s2.33-1.26,2.33-3.37c0-2.32-.85-3.42-2.37-3.42S27.82,154.65,27.82,157Z"/><path class="cls-11" d="M47.5,159.3c0,1.07,0,2.23,0,3.22h-3c0-.3-.06-.89-.08-1.28a3.17,3.17,0,0,1-3,1.54c-2.25,0-3.69-1.37-3.69-4.12v-7.21h3.06v6.6c0,1.22.38,2.23,1.7,2.23s2-.75,2-2.94v-5.89H47.5Z"/><path class="cls-11" d="M55.43,146.91H58.5v2.74H55.43Zm0,4.54H58.5v11.07H55.43Z"/><path class="cls-11" d="M63.4,159.19a1.91,1.91,0,0,0,2.09,1.38c1.13,0,1.55-.41,1.55-1.08s-.48-1-2.07-1.38c-3.6-.88-4.19-2-4.19-3.56s1.15-3.35,4.49-3.35,4.49,1.83,4.59,3.33H66.94c-.1-.41-.37-1.18-1.81-1.18-1,0-1.34.45-1.34.94s.34.82,2.14,1.24c3.69.86,4.21,2.12,4.21,3.75,0,1.83-1.39,3.5-4.76,3.5s-4.75-1.63-5-3.59Z"/><path class="cls-11" d="M13.08,177.1h1.71v-3h3.06v3H20v2.31H17.85v5.46c0,.84.26,1.16,1.17,1.16a6,6,0,0,0,.7,0v2.11a7.18,7.18,0,0,1-2.06.21c-2.16,0-2.87-1.16-2.87-3.09v-5.82H13.08Z"/><path class="cls-11" d="M24.83,172.56v5.85A3.54,3.54,0,0,1,28,176.85c2.07,0,3.71,1.22,3.71,4.22v7.1H28.66v-6.64c0-1.44-.51-2.21-1.79-2.21-1.71,0-2,1.27-2,3v5.87H21.77V172.56Z"/><path class="cls-11" d="M36.9,183.29c0,1.39.7,2.74,2.22,2.74a1.74,1.74,0,0,0,1.93-1.18h3.07A4.85,4.85,0,0,1,39,188.43c-3.64,0-5.22-2.73-5.22-5.63,0-3.47,1.78-6,5.33-6,3.8,0,5.09,2.75,5.09,5.51a6.78,6.78,0,0,1,0,.93Zm4.27-1.88c0-1.29-.53-2.37-2-2.37s-2.06,1-2.19,2.37Z"/><path class="cls-11" d="M51.31,172.56h3.06v5.72a3.47,3.47,0,0,1,3.17-1.43c3,0,4.51,2.48,4.51,5.59s-1.63,6-4.81,6a3,3,0,0,1-2.91-1.31,5.42,5.42,0,0,1-.12,1H51.29c0-1.2,0-2.42,0-3.62Zm7.63,9.94c0-1.85-.68-3.2-2.34-3.2s-2.37,1.14-2.37,3.4c0,1.86.55,3.29,2.34,3.29C58.13,186,58.94,184.59,58.94,182.5Z"/><path class="cls-11" d="M66.72,183.29c0,1.39.69,2.74,2.22,2.74a1.74,1.74,0,0,0,1.93-1.18h3.07a4.85,4.85,0,0,1-5.08,3.58c-3.65,0-5.23-2.73-5.23-5.63,0-3.47,1.78-6,5.34-6,3.8,0,5.09,2.75,5.09,5.51a6.78,6.78,0,0,1,0,.93ZM71,181.41c0-1.29-.53-2.37-2-2.37s-2.06,1-2.18,2.37Z"/><path class="cls-11" d="M78.42,184.84a1.93,1.93,0,0,0,2.1,1.38c1.13,0,1.54-.41,1.54-1.08s-.47-1-2.06-1.38c-3.6-.88-4.19-2-4.19-3.56s1.15-3.35,4.48-3.35,4.5,1.83,4.59,3.33H82c-.1-.41-.37-1.18-1.81-1.18-1,0-1.34.45-1.34.94s.34.82,2.14,1.24c3.69.86,4.21,2.12,4.21,3.75,0,1.83-1.39,3.5-4.77,3.5s-4.74-1.63-5-3.59Z"/><path class="cls-11" d="M86,177.1H87.7v-3h3.06v3h2.17v2.31H90.76v5.46c0,.84.26,1.16,1.17,1.16a6,6,0,0,0,.7,0v2.11a7.18,7.18,0,0,1-2.06.21c-2.16,0-2.87-1.16-2.87-3.09v-5.82H86Z"/><path class="cls-11" d="M17.2,212.84v5.22h-3V205.42c0-.9,0-1.78,0-2.67h3a11,11,0,0,1,.1,1.38,3.51,3.51,0,0,1,3.22-1.63c2.48,0,4.41,2.08,4.41,5.51,0,3.9-2.15,6.07-4.83,6.07A3.06,3.06,0,0,1,17.2,212.84Zm4.52-4.71c0-2-.82-3.18-2.28-3.18-1.74,0-2.36,1.12-2.36,3.35s.57,3.34,2.23,3.34S21.72,210.38,21.72,208.13Z"/><path class="cls-11" d="M29.5,208.94c0,1.39.7,2.74,2.23,2.74a1.75,1.75,0,0,0,1.93-1.18h3.06a4.85,4.85,0,0,1-5.07,3.58c-3.65,0-5.23-2.73-5.23-5.63,0-3.47,1.78-5.95,5.34-5.95,3.8,0,5.09,2.75,5.09,5.51a6.78,6.78,0,0,1,0,.93Zm4.28-1.88c0-1.29-.54-2.37-2-2.37s-2.06,1-2.18,2.37Z"/><path class="cls-11" d="M39,205.75c0-1.09,0-2.07,0-3h3c0,.25.08,1.35.08,1.95a3.54,3.54,0,0,1,3.55-2.2v2.92c-2.22-.06-3.55.54-3.55,3.57v4.83H39Z"/><path class="cls-11" d="M49.68,210.49a1.91,1.91,0,0,0,2.09,1.38c1.13,0,1.54-.41,1.54-1.08s-.47-1-2.06-1.38c-3.6-.88-4.19-2-4.19-3.56s1.15-3.35,4.49-3.35,4.49,1.83,4.58,3.33H53.22c-.1-.41-.37-1.18-1.81-1.18-1,0-1.34.45-1.34.94s.34.82,2.14,1.24c3.69.86,4.21,2.12,4.21,3.75,0,1.83-1.39,3.5-4.77,3.5s-4.74-1.63-5-3.59Z"/><path class="cls-11" d="M68.83,208.26c0,3.35-2,5.82-5.51,5.82s-5.44-2.45-5.44-5.76,2.07-5.82,5.58-5.82C66.72,202.5,68.83,204.79,68.83,208.26Zm-7.84,0c0,2.13.92,3.39,2.39,3.39s2.34-1.26,2.34-3.38c0-2.31-.85-3.41-2.38-3.41S61,206,61,208.29Z"/><path class="cls-11" d="M71,205.54c0-.94,0-2,0-2.79h3a12.16,12.16,0,0,1,.12,1.41,3.39,3.39,0,0,1,3.21-1.66c2.22,0,3.67,1.5,3.67,4.28v7H77.82v-6.7c0-1.24-.41-2.15-1.76-2.15s-2,.73-2,2.68v6.17H71Z"/><path class="cls-11" d="M85,208.48l-.4-6.84v-2.56h3.26v2.57l-.39,6.83Zm-.31,5.34v-3.54h3v3.54Z"/><path class="cls-11" d="M14.32,233.74v7.07H13.6v-7.07Z"/><path class="cls-11" d="M15.35,235.72h.92v-1.56H17v1.56h1.17v.58H17v3.17c0,.53.12.83.6.83a1.69,1.69,0,0,0,.49-.06v.55a1.92,1.92,0,0,1-.69.09c-.72,0-1.08-.36-1.08-1.19V236.3h-.92Z"/><path class="cls-11" d="M19,235.91a11.06,11.06,0,0,0,.46-2.55h.7a9.37,9.37,0,0,1-.58,2.55Z"/><path class="cls-11" d="M21.13,239.38a1.26,1.26,0,0,0,1.36,1c.84,0,1.17-.37,1.17-.89s-.24-.79-1.3-1.05c-1.38-.33-1.7-.75-1.7-1.44s.53-1.39,1.75-1.39A1.65,1.65,0,0,1,24.26,237h-.67a1.11,1.11,0,0,0-1.2-.88c-.81,0-1.05.4-1.05.77s.23.64,1.21.88c1.48.35,1.82.84,1.82,1.6,0,.92-.74,1.52-1.9,1.52a1.8,1.8,0,0,1-2-1.55Z"/><path class="cls-11" d="M28.85,235.72v5.36c0,1.39-.34,1.86-1.33,1.86l-.31,0v-.61h.21c.67,0,.75-.36.75-1.13v-5.47Zm-.68-1.32v-1h.68v1Z"/><path class="cls-11" d="M34.39,239.33c0,.49,0,1.24,0,1.48h-.66a7.66,7.66,0,0,1,0-.83,1.54,1.54,0,0,1-1.6,1c-.79,0-1.68-.35-1.68-1.85v-3.36h.67v3.21c0,.71.23,1.38,1.16,1.38s1.45-.58,1.45-2v-2.63h.68Z"/><path class="cls-11" d="M36.11,239.38a1.25,1.25,0,0,0,1.36,1c.83,0,1.16-.37,1.16-.89s-.24-.79-1.3-1.05c-1.38-.33-1.7-.75-1.7-1.44s.53-1.39,1.76-1.39A1.65,1.65,0,0,1,39.23,237h-.66a1.12,1.12,0,0,0-1.21-.88c-.81,0-1,.4-1,.77s.22.64,1.2.88c1.49.35,1.82.84,1.82,1.6,0,.92-.73,1.52-1.89,1.52a1.79,1.79,0,0,1-2-1.55Z"/><path class="cls-11" d="M39.8,235.72h.91v-1.56h.68v1.56h1.17v.58H41.39v3.17c0,.53.12.83.6.83a1.69,1.69,0,0,0,.49-.06v.55a1.92,1.92,0,0,1-.69.09c-.72,0-1.08-.36-1.08-1.19V236.3H39.8Z"/><path class="cls-11" d="M46.17,233.36h.68v3.15a1.73,1.73,0,0,1,1.69-.92c1.24,0,2.09,1,2.09,2.57s-.79,2.77-2.22,2.77a1.56,1.56,0,0,1-1.57-.86c0,.29,0,.6,0,.74h-.66c0-.57,0-1.15,0-1.73Zm3.75,4.81c0-1.2-.57-2-1.5-2-1.19,0-1.61.81-1.61,2.09s.37,2.05,1.55,2.05C49.33,240.33,49.92,239.52,49.92,238.17Z"/><path class="cls-11" d="M52.19,238.37c0,1.19.61,2,1.54,2a1.32,1.32,0,0,0,1.35-.88h.69a2,2,0,0,1-2.07,1.47c-1.57,0-2.2-1.32-2.2-2.62,0-1.48.74-2.72,2.26-2.72A2.14,2.14,0,0,1,55.88,238c0,.15,0,.28,0,.42Zm3-.53a1.49,1.49,0,0,0-1.45-1.67c-1,0-1.42.69-1.52,1.67Z"/><path class="cls-11" d="M61,239.29a2,2,0,0,1-2,1.64c-1.33,0-2.22-1-2.22-2.64,0-1.42.78-2.7,2.29-2.7a1.86,1.86,0,0,1,2,1.67h-.68A1.27,1.27,0,0,0,59,236.19c-1,0-1.56.85-1.56,2.07s.53,2.08,1.52,2.08a1.33,1.33,0,0,0,1.35-1.05Z"/><path class="cls-11" d="M65.8,239.78a6.75,6.75,0,0,0,.07,1h-.65a3.26,3.26,0,0,1-.09-.73,1.62,1.62,0,0,1-1.62.85,1.53,1.53,0,0,1-1.71-1.54c0-1.13.88-1.64,2.41-1.64h.92v-.48c0-.48-.15-1.11-1.22-1.11s-1.09.49-1.2.9h-.66c.06-.63.45-1.47,1.88-1.47,1.2,0,1.87.5,1.87,1.64Zm-.66-1.51h-.92c-1.08,0-1.71.28-1.71,1.09a1,1,0,0,0,1.09,1c1.35,0,1.54-.9,1.54-1.92Z"/><path class="cls-11" d="M71.28,239.33c0,.49,0,1.24,0,1.48h-.66a7.66,7.66,0,0,1,0-.83,1.53,1.53,0,0,1-1.59,1c-.8,0-1.68-.35-1.68-1.85v-3.36H68v3.21c0,.71.22,1.38,1.16,1.38s1.44-.58,1.44-2v-2.63h.68Z"/><path class="cls-11" d="M73,239.38a1.26,1.26,0,0,0,1.36,1c.83,0,1.17-.37,1.17-.89s-.24-.79-1.31-1.05c-1.38-.33-1.69-.75-1.69-1.44s.53-1.39,1.75-1.39A1.66,1.66,0,0,1,76.13,237h-.67a1.11,1.11,0,0,0-1.21-.88c-.8,0-1,.4-1,.77s.23.64,1.2.88c1.49.35,1.83.84,1.83,1.6,0,.92-.74,1.52-1.9,1.52a1.8,1.8,0,0,1-2-1.55Z"/><path class="cls-11" d="M77.75,238.37c0,1.19.6,2,1.53,2a1.32,1.32,0,0,0,1.36-.88h.69a2,2,0,0,1-2.07,1.47c-1.58,0-2.2-1.32-2.2-2.62,0-1.48.74-2.72,2.26-2.72A2.14,2.14,0,0,1,81.44,238c0,.15,0,.28,0,.42Zm3-.53c0-.93-.5-1.67-1.44-1.67s-1.42.69-1.52,1.67Z"/><path class="cls-11" d="M85.41,235.72c.7,2.52,1.1,4,1.19,4.44h0c.09-.43.53-1.89,1.29-4.44h.69c.88,3,1.15,3.9,1.23,4.33h0c.14-.56.36-1.32,1.23-4.33h.7l-1.59,5.09h-.74c-.52-1.83-1.11-3.81-1.21-4.32h0c-.1.52-.62,2.22-1.25,4.32h-.78l-1.49-5.09Z"/><path class="cls-11" d="M93,238.37c0,1.19.6,2,1.53,2a1.33,1.33,0,0,0,1.36-.88h.69a2,2,0,0,1-2.07,1.47c-1.58,0-2.2-1.32-2.2-2.62,0-1.48.74-2.72,2.25-2.72A2.14,2.14,0,0,1,96.73,238a2.88,2.88,0,0,1,0,.42Zm3-.53c0-.93-.5-1.67-1.44-1.67s-1.42.69-1.53,1.67Z"/><path class="cls-11" d="M100.5,240.81v-7.45h.68v7.45Z"/><path class="cls-11" d="M107,238.25a2.4,2.4,0,0,1-2.35,2.68,2.36,2.36,0,0,1-2.28-2.66,2.39,2.39,0,0,1,2.34-2.68C106.11,235.59,107,236.65,107,238.25Zm-3.92,0c0,1.17.61,2.08,1.61,2.08s1.6-.85,1.6-2.07-.57-2.08-1.62-2.08S103.1,237.07,103.1,238.26Z"/><path class="cls-11" d="M108.33,235.72c.77,2.22,1.31,3.79,1.48,4.44h0c.12-.47.68-2,1.56-4.44h.71l-1.91,5.09h-.77l-1.8-5.09Z"/><path class="cls-11" d="M113.3,238.37c0,1.19.61,2,1.54,2a1.33,1.33,0,0,0,1.36-.88h.68a2,2,0,0,1-2.07,1.47c-1.57,0-2.19-1.32-2.19-2.62,0-1.48.74-2.72,2.25-2.72A2.14,2.14,0,0,1,117,238a2.88,2.88,0,0,1,0,.42Zm3-.53c0-.93-.5-1.67-1.44-1.67s-1.42.69-1.53,1.67Z"/><path class="cls-11" d="M13.5,247.86c.94,2.7,1.39,4,1.55,4.51h0c.18-.6.57-1.78,1.49-4.51h.69l-1.88,5.37c-.53,1.5-.9,1.86-1.88,1.86a2.89,2.89,0,0,1-.5,0v-.62a3,3,0,0,0,.44,0c.69,0,.93-.33,1.27-1.29l-1.93-5.31Z"/><path class="cls-11" d="M22.44,250.4a2.4,2.4,0,0,1-2.35,2.68,2.36,2.36,0,0,1-2.28-2.66,2.39,2.39,0,0,1,2.34-2.68C21.53,247.74,22.44,248.8,22.44,250.4Zm-3.92,0c0,1.17.6,2.08,1.61,2.08s1.6-.85,1.6-2.07-.57-2.08-1.62-2.08S18.52,249.22,18.52,250.41Z"/><path class="cls-11" d="M27.58,251.47c0,.5,0,1.25,0,1.49h-.65c0-.13,0-.46,0-.83a1.52,1.52,0,0,1-1.59,1c-.79,0-1.68-.35-1.68-1.85v-3.37h.67v3.22c0,.71.22,1.38,1.16,1.38s1.44-.58,1.44-2v-2.64h.68Z"/><path class="cls-11" d="M31.82,249.84l4.53-2.5v.72l-3.81,2.07,3.81,2.14V253l-4.53-2.56Z"/><path class="cls-11" d="M37.91,247.84a1.87,1.87,0,0,1,2-1.66,1.71,1.71,0,0,1,1.93,1.69,1.38,1.38,0,0,1-.91,1.39v0A1.66,1.66,0,0,1,42.17,251a2,2,0,0,1-2.25,2.09,2,2,0,0,1-2.21-1.8h.69a1.5,1.5,0,0,0,1.56,1.2A1.36,1.36,0,0,0,41.44,251c0-1-.62-1.4-1.57-1.4h-.43V249h.35c1,0,1.37-.38,1.37-1.13a1.09,1.09,0,0,0-1.25-1.11,1.23,1.23,0,0,0-1.33,1.06Z"/><path class="cls-11" d="M13.36,270.8a1.56,1.56,0,0,1,1.69-1.38,1.43,1.43,0,0,1,1.61,1.41A1.16,1.16,0,0,1,15.9,272v0a1.37,1.37,0,0,1,1,1.42A1.69,1.69,0,0,1,15,275.18a1.72,1.72,0,0,1-1.85-1.51h.58a1.25,1.25,0,0,0,1.3,1,1.15,1.15,0,0,0,1.24-1.24c0-.81-.53-1.16-1.32-1.16h-.36v-.49h.3c.79,0,1.14-.32,1.14-1a.91.91,0,0,0-1-.92,1,1,0,0,0-1.11.88Z"/><path class="cls-11" d="M23.24,274.21a5,5,0,0,0,.06.86h-.54a2.36,2.36,0,0,1-.08-.61,1.34,1.34,0,0,1-1.35.72,1.27,1.27,0,0,1-1.42-1.29c0-.94.73-1.37,2-1.37h.77v-.4c0-.4-.13-.92-1-.92s-.92.41-1,.75h-.56c.05-.53.38-1.23,1.57-1.22,1,0,1.56.41,1.56,1.36ZM22.69,273h-.77c-.9,0-1.43.24-1.43.91a.83.83,0,0,0,.91.84c1.13,0,1.29-.75,1.29-1.6Z"/><path class="cls-11" d="M27.93,274.74c0,1.36-.58,2.1-1.88,2.1a1.5,1.5,0,0,1-1.71-1.28h.58a1.08,1.08,0,0,0,1.15.8c1,0,1.32-.67,1.32-1.7v-.4a1.32,1.32,0,0,1-1.38.8c-1,0-1.76-.82-1.76-2.11s.81-2.22,1.83-2.22c.84,0,1.2.39,1.31.7,0-.22,0-.51,0-.6H28c0,.19,0,.82,0,1.23Zm-3.09-1.81c0,1,.51,1.63,1.27,1.63,1,0,1.29-.66,1.29-1.69s-.3-1.64-1.27-1.64S24.84,272,24.84,272.93Z"/><path class="cls-11" d="M29.26,272c0-.66,0-1,0-1.15h.55c0,.12,0,.42,0,.91a1.55,1.55,0,0,1,1.46-1v.58a1.44,1.44,0,0,0-1.46,1.62v2.14h-.56Z"/><path class="cls-11" d="M32.28,273c0,1,.51,1.64,1.28,1.64a1.08,1.08,0,0,0,1.13-.74h.58a1.68,1.68,0,0,1-1.73,1.24c-1.31,0-1.83-1.11-1.83-2.19,0-1.24.62-2.26,1.88-2.26a1.77,1.77,0,0,1,1.77,2c0,.12,0,.24,0,.35Zm2.5-.44c0-.78-.42-1.39-1.2-1.39s-1.19.57-1.27,1.39Z"/><path class="cls-11" d="M36.65,273c0,1,.51,1.64,1.28,1.64a1.08,1.08,0,0,0,1.13-.74h.58a1.68,1.68,0,0,1-1.73,1.24c-1.31,0-1.83-1.11-1.83-2.19,0-1.24.62-2.26,1.88-2.26a1.77,1.77,0,0,1,1.77,2c0,.12,0,.24,0,.35Zm2.5-.44c0-.78-.42-1.39-1.2-1.39s-1.19.57-1.27,1.39Z"/><path class="cls-11" d="M44.17,268.86v5c0,.41,0,.8,0,1.21h-.55a6,6,0,0,1,0-.66,1.36,1.36,0,0,1-1.38.77c-1.1,0-1.77-.9-1.77-2.18s.72-2.27,1.89-2.27c.8,0,1.14.33,1.26.59v-2.46ZM41,273c0,1.1.55,1.69,1.26,1.69,1.06,0,1.32-.75,1.32-1.8s-.23-1.64-1.26-1.64C41.56,271.23,41,271.86,41,273Z"/><circle class="cls-12" cx="122.91" cy="272" r="7.03"/><path class="cls-11" d="M101.12,275v-2.19a.22.22,0,0,0,0-.15L99,269.06h.7c.56,1,1.51,2.63,1.77,3.1.26-.47,1.22-2.11,1.82-3.1h.65l-2.17,3.59a.21.21,0,0,0,0,.13V275Z"/><path class="cls-11" d="M107.38,272.83a2,2,0,0,1-2,2.23,2,2,0,0,1-1.9-2.22,2,2,0,0,1,2-2.23A2,2,0,0,1,107.38,272.83Zm-3.27,0c0,1,.5,1.73,1.34,1.73s1.34-.7,1.34-1.73-.48-1.73-1.35-1.73S104.11,271.84,104.11,272.83Z"/><path class="cls-11" d="M111.66,273.72c0,.41,0,1,0,1.24h-.55c0-.11,0-.38,0-.7a1.29,1.29,0,0,1-1.33.8c-.66,0-1.4-.29-1.4-1.55v-2.8h.56v2.68c0,.59.18,1.15,1,1.15s1.21-.49,1.21-1.63v-2.2h.56Z"/><path class="cls-11" d="M121.59,269.61v3c0,1.14.59,1.43,1.25,1.43s1.17-.3,1.17-1.43v-3h1.3v3.06a2.19,2.19,0,0,1-2.51,2.4c-1.53,0-2.51-.71-2.51-2.37v-3.09Z"/><circle class="cls-6" cx="151.21" cy="63.43" r="2"/><circle class="cls-5" cx="144.48" cy="2" r="2"/><circle class="cls-5" cx="328.78" cy="64.28" r="2"/><rect class="cls-13" x="240.07" y="13.6" width="142.62" height="178.28" rx="8"/><path class="cls-14" d="M253.36,64.73l5.42-6.29h-5.16V56.05h8.59v2.36l-5.32,6.2h5.7L262.22,67h-8.86Z"/><path class="cls-14" d="M273.55,64.17a25.89,25.89,0,0,0,.14,2.83H270.8a4.37,4.37,0,0,1-.16-1.07c-.39.62-1.14,1.33-3.08,1.33a3.39,3.39,0,0,1-3.75-3.44c0-2.49,2-3.64,5.21-3.64h1.57v-.67c0-.78-.28-1.55-1.69-1.55s-1.56.55-1.7,1.34h-2.88c.16-1.95,1.36-3.52,4.7-3.5,2.93,0,4.53,1.16,4.53,3.77Zm-3-2.15h-1.24c-1.82,0-2.5.56-2.5,1.61a1.41,1.41,0,0,0,1.58,1.46c1.92,0,2.16-1.34,2.16-2.78Z"/><path class="cls-14" d="M279.33,60.67c.81-1.09,2.26-2.79,3.77-4.62h3.48l-3.82,4.14L286.94,67H283.5l-2.77-4.87-1.4,1.36V67h-3V51.56h3Z"/><path class="cls-14" d="M297.38,63.82c0,1.06,0,2.2,0,3.18h-3c0-.29-.06-.88-.08-1.26a3.12,3.12,0,0,1-3,1.52c-2.24,0-3.66-1.36-3.66-4.07V56.05h3v6.53c0,1.21.38,2.21,1.69,2.21s1.95-.74,1.95-2.91V56.05h3Z"/><path class="cls-14" d="M300.54,67V58.33h-1.6V56.05h1.6v-1c0-2.26,1.12-3.75,3.49-3.75a6.49,6.49,0,0,1,1.41.13v2.4a3.78,3.78,0,0,0-.64,0c-.89,0-1.23.33-1.23,1.5v.73h1.92v2.28h-1.92V67Z"/><path class="cls-14" d="M315.91,64.17a23,23,0,0,0,.15,2.83h-2.9a4.38,4.38,0,0,1-.15-1.07c-.4.62-1.15,1.33-3.08,1.33a3.39,3.39,0,0,1-3.76-3.44c0-2.49,2-3.64,5.22-3.64H313v-.67c0-.78-.28-1.55-1.69-1.55s-1.56.55-1.7,1.34h-2.88c.16-1.95,1.37-3.52,4.7-3.5,2.93,0,4.53,1.16,4.53,3.77ZM313,62h-1.23c-1.83,0-2.51.56-2.51,1.61a1.41,1.41,0,0,0,1.58,1.46c1.93,0,2.16-1.34,2.16-2.78Z"/><path class="cls-11" d="M254.09,77h3v2.71h-3Zm0,4.49h3v11h-3Z"/><path class="cls-11" d="M262,89.12a1.89,1.89,0,0,0,2.07,1.36c1.12,0,1.53-.4,1.53-1.07s-.47-1-2-1.36c-3.57-.88-4.15-2-4.15-3.53s1.13-3.32,4.44-3.32,4.44,1.82,4.54,3.3h-2.88c-.1-.41-.37-1.17-1.8-1.17-1,0-1.32.44-1.32.94s.34.8,2.11,1.22c3.66.85,4.18,2.1,4.18,3.71,0,1.81-1.38,3.46-4.72,3.46s-4.7-1.6-4.94-3.54Z"/><path class="cls-11" d="M274.72,81.45h1.69v-3h3v3h2.15v2.28h-2.15v5.41c0,.83.26,1.16,1.16,1.16a5.87,5.87,0,0,0,.69,0v2.09a7,7,0,0,1-2,.21c-2.13,0-2.84-1.15-2.84-3.06V83.73h-1.69Z"/><path class="cls-11" d="M286.36,77v5.79a3.51,3.51,0,0,1,3.14-1.55c2,0,3.67,1.21,3.67,4.18v7h-3V85.83c0-1.42-.5-2.18-1.78-2.18-1.68,0-2,1.26-2,2.95v5.81h-3V77Z"/><path class="cls-11" d="M298.31,87.58c0,1.37.69,2.71,2.2,2.71a1.73,1.73,0,0,0,1.91-1.17h3a4.81,4.81,0,0,1-5,3.54c-3.61,0-5.17-2.69-5.17-5.57,0-3.44,1.76-5.89,5.28-5.89,3.76,0,5,2.72,5,5.46a6.63,6.63,0,0,1,0,.92Zm4.23-1.86c0-1.28-.53-2.35-2-2.35s-2,1-2.16,2.35Z"/><path class="cls-11" d="M254.49,117.81v-8.67H252.9v-2.28h1.59v-1c0-2.26,1.13-3.75,3.5-3.75a6.63,6.63,0,0,1,1.41.13v2.4a3.87,3.87,0,0,0-.64-.05c-.9,0-1.23.33-1.23,1.5v.73h1.91v2.28h-1.91v8.67Z"/><path class="cls-11" d="M270.55,114.63c0,1.06,0,2.2,0,3.18h-3c0-.29-.06-.88-.08-1.26a3.13,3.13,0,0,1-3,1.52c-2.23,0-3.65-1.36-3.65-4.07v-7.14h3v6.53c0,1.21.37,2.21,1.69,2.21s1.95-.74,1.95-2.91v-5.83h3Z"/><path class="cls-11" d="M273.31,109.62c0-.93,0-2,0-2.76h2.94a11.71,11.71,0,0,1,.11,1.4,3.34,3.34,0,0,1,3.18-1.65c2.2,0,3.63,1.48,3.63,4.24v7h-3v-6.63c0-1.23-.41-2.12-1.75-2.12s-2,.72-2,2.65v6.1h-3Z"/><path class="cls-11" d="M285.86,109.62c0-.93,0-2,0-2.76h2.94c.06.28.1,1,.12,1.4a3.33,3.33,0,0,1,3.17-1.65c2.2,0,3.63,1.48,3.63,4.24v7h-3v-6.63c0-1.23-.41-2.12-1.75-2.12s-2,.72-2,2.65v6.1h-3Z"/><path class="cls-11" d="M298.4,102.37h3v2.7h-3Zm0,4.49h3v11h-3Z"/><path class="cls-11" d="M306.57,113c0,1.37.69,2.7,2.2,2.7a1.73,1.73,0,0,0,1.91-1.16h3a4.78,4.78,0,0,1-5,3.54c-3.61,0-5.17-2.7-5.17-5.57,0-3.44,1.76-5.89,5.28-5.89,3.76,0,5,2.72,5,5.45a6.86,6.86,0,0,1,0,.93Zm4.23-1.87c0-1.27-.53-2.35-2-2.35s-2,1-2.16,2.35Z"/><path class="cls-11" d="M318.16,114.52a1.91,1.91,0,0,0,2.08,1.36c1.12,0,1.52-.4,1.52-1.06s-.47-1-2-1.37c-3.56-.88-4.15-2-4.15-3.53s1.14-3.31,4.44-3.31,4.45,1.81,4.55,3.29h-2.89c-.09-.4-.37-1.17-1.79-1.17-1,0-1.33.45-1.33.94s.34.81,2.12,1.22c3.66.85,4.17,2.11,4.17,3.71,0,1.82-1.38,3.47-4.72,3.47s-4.7-1.61-4.94-3.55Z"/><path class="cls-11" d="M325.66,106.86h1.69v-3h3v3h2.15v2.28h-2.15v5.41c0,.83.25,1.15,1.16,1.15a5.79,5.79,0,0,0,.69,0v2.08a6.72,6.72,0,0,1-2,.21c-2.14,0-2.84-1.14-2.84-3.06v-5.76h-1.69Z"/><path class="cls-11" d="M335.82,112.53l-.41-6.78v-2.53h3.23v2.55l-.38,6.76Zm-.31,5.29v-3.51h3v3.51Z"/><path class="cls-11" d="M254.25,137.55v7h-.71v-7Z"/><path class="cls-11" d="M255.28,139.5h.9V138h.68v1.53H258v.59h-1.16v3.13c0,.53.12.82.59.82a2.06,2.06,0,0,0,.48,0v.54a2.15,2.15,0,0,1-.68.09c-.71,0-1.07-.36-1.07-1.18v-3.35h-.9Z"/><path class="cls-11" d="M258.92,139.7a10.32,10.32,0,0,0,.46-2.53h.69a9.23,9.23,0,0,1-.57,2.53Z"/><path class="cls-11" d="M261,143.13a1.25,1.25,0,0,0,1.34,1c.83,0,1.16-.37,1.16-.88s-.24-.78-1.29-1c-1.37-.33-1.68-.74-1.68-1.42s.52-1.38,1.73-1.38a1.64,1.64,0,0,1,1.83,1.44h-.66a1.09,1.09,0,0,0-1.19-.87c-.8,0-1,.39-1,.76s.23.63,1.2.86c1.47.36,1.8.84,1.8,1.6s-.73,1.5-1.88,1.5a1.79,1.79,0,0,1-2-1.54Z"/><path class="cls-11" d="M268.64,139.5v5.32c0,1.37-.34,1.83-1.32,1.83l-.31,0V146h.22c.66,0,.74-.35.74-1.12V139.5Zm-.67-1.3v-1h.67v1Z"/><path class="cls-11" d="M274.12,143.08c0,.49,0,1.23,0,1.47h-.65a7.44,7.44,0,0,1,0-.82,1.52,1.52,0,0,1-1.58.94c-.78,0-1.66-.35-1.66-1.84V139.5h.66v3.18c0,.71.22,1.37,1.15,1.37s1.43-.58,1.43-1.94V139.5h.67Z"/><path class="cls-11" d="M275.83,143.13a1.25,1.25,0,0,0,1.34,1c.83,0,1.16-.37,1.16-.88s-.24-.78-1.29-1c-1.37-.33-1.68-.74-1.68-1.42s.52-1.38,1.74-1.38a1.64,1.64,0,0,1,1.82,1.44h-.66a1.09,1.09,0,0,0-1.19-.87c-.8,0-1,.39-1,.76s.22.63,1.19.86c1.47.36,1.8.84,1.8,1.6s-.73,1.5-1.88,1.5a1.79,1.79,0,0,1-2-1.54Z"/><path class="cls-11" d="M279.48,139.5h.91V138h.67v1.53h1.16v.59h-1.16v3.13c0,.53.12.82.59.82a2.09,2.09,0,0,0,.49,0v.54a2.15,2.15,0,0,1-.68.09c-.71,0-1.07-.36-1.07-1.18v-3.35h-.91Z"/><path class="cls-11" d="M285.8,137.17h.67v3.12a1.69,1.69,0,0,1,1.67-.91c1.22,0,2.07,1,2.07,2.54s-.78,2.75-2.2,2.75a1.53,1.53,0,0,1-1.55-.86c0,.3,0,.6,0,.74h-.65c0-.57,0-1.14,0-1.71Zm3.71,4.76c0-1.18-.57-2-1.49-2-1.18,0-1.59.79-1.59,2.06s.37,2,1.54,2C288.93,144.08,289.51,143.27,289.51,141.93Z"/><path class="cls-11" d="M291.76,142.13c0,1.18.6,2,1.52,2a1.3,1.3,0,0,0,1.34-.87h.68a2,2,0,0,1-2.05,1.46c-1.55,0-2.17-1.31-2.17-2.6,0-1.47.73-2.69,2.23-2.69a2.12,2.12,0,0,1,2.1,2.34c0,.14,0,.28,0,.41Zm3-.52c0-.92-.49-1.65-1.42-1.65s-1.41.67-1.51,1.65Z"/><path class="cls-11" d="M300.49,143a2,2,0,0,1-2,1.63c-1.32,0-2.2-1-2.2-2.62,0-1.4.76-2.67,2.26-2.67a1.84,1.84,0,0,1,1.95,1.65h-.67a1.27,1.27,0,0,0-1.3-1.06c-1,0-1.54.85-1.54,2.06s.53,2.05,1.5,2.05a1.33,1.33,0,0,0,1.34-1Z"/><path class="cls-11" d="M305.24,143.53a6.59,6.59,0,0,0,.07,1h-.65a2.86,2.86,0,0,1-.08-.72,1.65,1.65,0,0,1-1.62.84,1.52,1.52,0,0,1-1.68-1.53c0-1.11.87-1.62,2.38-1.62h.91V141c0-.48-.15-1.09-1.2-1.09s-1.09.48-1.19.88h-.66c.06-.61.45-1.45,1.87-1.45,1.18,0,1.85.5,1.85,1.63Zm-.66-1.5h-.91c-1.07,0-1.69.28-1.69,1.08a1,1,0,0,0,1.08,1c1.33,0,1.52-.9,1.52-1.91Z"/><path class="cls-11" d="M310.66,143.08c0,.49,0,1.23,0,1.47H310a7.44,7.44,0,0,1,0-.82,1.52,1.52,0,0,1-1.58.94c-.78,0-1.66-.35-1.66-1.84V139.5h.66v3.18c0,.71.22,1.37,1.15,1.37s1.43-.58,1.43-1.94V139.5h.67Z"/><path class="cls-11" d="M312.37,143.13a1.25,1.25,0,0,0,1.35,1c.82,0,1.15-.37,1.15-.88s-.24-.78-1.29-1c-1.36-.33-1.68-.74-1.68-1.42s.53-1.38,1.74-1.38a1.65,1.65,0,0,1,1.83,1.44h-.66a1.11,1.11,0,0,0-1.2-.87c-.8,0-1,.39-1,.76s.22.63,1.19.86c1.47.36,1.8.84,1.8,1.6s-.72,1.5-1.87,1.5a1.78,1.78,0,0,1-2-1.54Z"/><path class="cls-11" d="M317.07,142.13c0,1.18.6,2,1.52,2a1.3,1.3,0,0,0,1.34-.87h.68a2,2,0,0,1-2,1.46c-1.56,0-2.18-1.31-2.18-2.6,0-1.47.73-2.69,2.23-2.69a2.12,2.12,0,0,1,2.1,2.34c0,.14,0,.28,0,.41Zm3-.52c0-.92-.5-1.65-1.43-1.65s-1.41.67-1.51,1.65Z"/><path class="cls-11" d="M324.66,139.5c.69,2.5,1.09,3.93,1.18,4.41h0c.08-.44.52-1.87,1.27-4.41h.69c.87,3,1.13,3.87,1.22,4.29h0c.13-.55.35-1.3,1.21-4.29h.7l-1.58,5.05h-.73c-.52-1.81-1.1-3.78-1.2-4.28h0c-.1.52-.62,2.2-1.23,4.28h-.78L324,139.5Z"/><path class="cls-11" d="M332.21,142.13c0,1.18.6,2,1.52,2a1.32,1.32,0,0,0,1.35-.87h.68a2,2,0,0,1-2.05,1.46c-1.56,0-2.18-1.31-2.18-2.6,0-1.47.73-2.69,2.24-2.69a2.12,2.12,0,0,1,2.1,2.34,2.75,2.75,0,0,1,0,.41Zm3-.52c0-.92-.5-1.65-1.43-1.65s-1.41.67-1.51,1.65Z"/><path class="cls-11" d="M339.61,144.55v-7.38h.67v7.38Z"/><path class="cls-11" d="M346.06,142a2.38,2.38,0,0,1-2.32,2.65c-1.4,0-2.26-1.12-2.26-2.64a2.37,2.37,0,0,1,2.31-2.65C345.16,139.38,346.06,140.43,346.06,142Zm-3.88,0c0,1.15.6,2.05,1.6,2.05s1.58-.84,1.58-2.05-.56-2.06-1.6-2.06S342.18,140.84,342.18,142Z"/><path class="cls-11" d="M347.37,139.5c.75,2.2,1.29,3.76,1.46,4.4h0c.12-.46.67-2,1.55-4.4h.69l-1.88,5.05h-.77l-1.78-5.05Z"/><path class="cls-11" d="M352.29,142.13c0,1.18.6,2,1.52,2a1.3,1.3,0,0,0,1.34-.87h.68a2,2,0,0,1-2.05,1.46c-1.55,0-2.17-1.31-2.17-2.6,0-1.47.73-2.69,2.23-2.69a2.12,2.12,0,0,1,2.1,2.34c0,.14,0,.28,0,.41Zm3-.52c0-.92-.49-1.65-1.42-1.65s-1.41.67-1.51,1.65Z"/><path class="cls-11" d="M253.44,151.54c.93,2.67,1.37,3.93,1.53,4.46h0c.18-.6.56-1.76,1.47-4.46h.69l-1.86,5.31c-.52,1.48-.9,1.84-1.86,1.84a4.38,4.38,0,0,1-.5,0V158a3.15,3.15,0,0,0,.44,0c.68,0,.92-.32,1.26-1.27l-1.91-5.25Z"/><path class="cls-11" d="M262.29,154.05A2.38,2.38,0,0,1,260,156.7c-1.4,0-2.26-1.12-2.26-2.64a2.37,2.37,0,0,1,2.32-2.64C261.39,151.42,262.29,152.47,262.29,154.05Zm-3.89,0c0,1.16.61,2.05,1.6,2.05s1.59-.83,1.59-2.05S261,152,260,152,258.4,152.88,258.4,154.06Z"/><path class="cls-11" d="M267.38,155.11c0,.49,0,1.23,0,1.47h-.65a7.44,7.44,0,0,1,0-.82,1.52,1.52,0,0,1-1.58.94c-.78,0-1.66-.34-1.66-1.83v-3.33h.66v3.18c0,.7.22,1.37,1.15,1.37s1.43-.58,1.43-1.94v-2.61h.67Z"/><path class="cls-11" d="M271.59,153.49l4.47-2.47v.72l-3.76,2,3.76,2.13v.71l-4.47-2.53Z"/><path class="cls-11" d="M277.62,151.51a1.85,1.85,0,0,1,2-1.64,1.7,1.7,0,0,1,1.91,1.68,1.37,1.37,0,0,1-.9,1.37v0a1.64,1.64,0,0,1,1.2,1.69,2.23,2.23,0,0,1-4.41.29h.68a1.48,1.48,0,0,0,1.54,1.19,1.35,1.35,0,0,0,1.47-1.46c0-1-.62-1.39-1.56-1.39h-.42v-.58h.35c.94,0,1.35-.38,1.35-1.12a1.08,1.08,0,0,0-1.23-1.1,1.21,1.21,0,0,0-1.32,1Z"/><path class="cls-11" d="M254.23,178.48v-4.81a3.88,3.88,0,0,1-1.2.57v-.49a4,4,0,0,0,1.33-.8h.44v5.53Z"/><path class="cls-11" d="M256.09,178.48v0a3.46,3.46,0,0,1,1.67-2.43c.92-.71,1.16-.93,1.16-1.59a1,1,0,0,0-1.05-1.05c-.71,0-1.07.35-1.2,1.1h-.56a1.66,1.66,0,0,1,1.76-1.6,1.5,1.5,0,0,1,1.65,1.53c0,.84-.36,1.15-1.38,2a3.85,3.85,0,0,0-1.39,1.6h3l-.09.51Z"/><path class="cls-11" d="M262.84,178.48V177h-2.62v-.53L262.8,173h.59v3.52h.73l-.07.5h-.66v1.48Zm0-3.52c0-.37,0-1,0-1.35-.23.41-1.43,2-2,2.89h2Z"/><path class="cls-11" d="M268.25,173.49h-2.34c-.05.5-.2,1.45-.27,1.77a1.52,1.52,0,0,1,1.22-.5,1.62,1.62,0,0,1,1.64,1.82,1.78,1.78,0,0,1-1.83,2,1.68,1.68,0,0,1-1.78-1.45h.58a1.19,1.19,0,0,0,1.22,1c.82,0,1.22-.58,1.22-1.47s-.32-1.35-1.14-1.35a1.18,1.18,0,0,0-1.24.78l-.54-.12c.17-.73.37-2.28.45-3h2.89Z"/><path class="cls-11" d="M274.71,177.63a4.86,4.86,0,0,0,.06.85h-.54a2.5,2.5,0,0,1-.07-.6,1.36,1.36,0,0,1-1.35.7,1.25,1.25,0,0,1-1.4-1.27c0-.93.72-1.36,2-1.36h.76v-.39c0-.4-.12-.91-1-.91s-.91.4-1,.73h-.55c.05-.51.37-1.21,1.56-1.21,1,0,1.54.42,1.54,1.36Zm-.55-1.25h-.76c-.89,0-1.41.24-1.41.9a.81.81,0,0,0,.9.83c1.12,0,1.27-.74,1.27-1.59Z"/><path class="cls-11" d="M279.36,178.16c0,1.34-.58,2.08-1.87,2.08A1.49,1.49,0,0,1,275.8,179h.57a1.08,1.08,0,0,0,1.14.79c1,0,1.31-.66,1.31-1.69v-.39a1.32,1.32,0,0,1-1.37.79c-1,0-1.74-.82-1.74-2.09s.8-2.21,1.81-2.21a1.24,1.24,0,0,1,1.3.71c0-.22,0-.51,0-.6h.52c0,.19,0,.81,0,1.21Zm-3.06-1.8c0,.95.5,1.62,1.25,1.62,1,0,1.28-.66,1.28-1.68s-.3-1.63-1.26-1.63S276.3,175.42,276.3,176.36Z"/><path class="cls-11" d="M280.67,175.42c0-.65,0-1,0-1.14h.55c0,.12,0,.42,0,.9a1.55,1.55,0,0,1,1.44-1v.58a1.44,1.44,0,0,0-1.44,1.61v2.12h-.56Z"/><path class="cls-11" d="M283.67,176.47c0,1,.5,1.62,1.26,1.62a1.07,1.07,0,0,0,1.12-.73h.57a1.65,1.65,0,0,1-1.71,1.22c-1.3,0-1.81-1.09-1.81-2.16,0-1.23.61-2.25,1.86-2.25a1.76,1.76,0,0,1,1.75,2c0,.12,0,.24,0,.35Zm2.47-.44c0-.77-.42-1.38-1.19-1.38s-1.18.57-1.26,1.38Z"/><path class="cls-11" d="M288,176.47c0,1,.51,1.62,1.27,1.62a1.08,1.08,0,0,0,1.12-.73H291a1.65,1.65,0,0,1-1.71,1.22c-1.3,0-1.81-1.09-1.81-2.16,0-1.23.61-2.25,1.86-2.25a1.77,1.77,0,0,1,1.75,2c0,.12,0,.24,0,.35Zm2.48-.44c0-.77-.42-1.38-1.19-1.38s-1.18.57-1.26,1.38Z"/><path class="cls-11" d="M295.44,172.33v4.95c0,.4,0,.79,0,1.2h-.54a5.79,5.79,0,0,1,0-.65,1.35,1.35,0,0,1-1.38.75c-1.08,0-1.74-.88-1.74-2.15s.71-2.26,1.87-2.26a1.26,1.26,0,0,1,1.25.59v-2.43Zm-3.1,4.08c0,1.09.55,1.68,1.24,1.68,1.06,0,1.32-.75,1.32-1.79s-.23-1.63-1.25-1.63C292.86,174.67,292.34,175.3,292.34,176.41Z"/><circle class="cls-12" cx="361.8" cy="175.44" r="6.96"/><path class="cls-11" d="M329.33,177.89l2.55-3.24h-2.42v-.49h3.07v.5L330,177.87h2.62l-.11.5h-3.19Z"/><path class="cls-11" d="M336.47,177.51a5,5,0,0,0,.06.86H336a2.61,2.61,0,0,1-.07-.61,1.34,1.34,0,0,1-1.34.71,1.26,1.26,0,0,1-1.41-1.28c0-.93.73-1.35,2-1.35h.77v-.4c0-.4-.13-.91-1-.91s-.9.4-1,.74h-.55c.06-.52.38-1.21,1.56-1.21,1,0,1.54.41,1.54,1.35Zm-.55-1.25h-.75c-.9,0-1.42.24-1.42.91a.82.82,0,0,0,.9.83c1.12,0,1.27-.75,1.27-1.59Z"/><path class="cls-11" d="M338.35,176.26c.38-.42,1.44-1.51,2-2.1H341l-1.63,1.66,1.83,2.55h-.67L339,176.18l-.67.64v1.55h-.56v-6.15h.56Z"/><path class="cls-11" d="M344.91,177.14c0,.41,0,1,0,1.23h-.54a5.29,5.29,0,0,1,0-.69,1.25,1.25,0,0,1-1.31.79c-.66,0-1.39-.29-1.39-1.53v-2.78h.55v2.65c0,.59.19,1.15,1,1.15s1.19-.49,1.19-1.62v-2.18h.56Z"/><path class="cls-11" d="M346.4,178.37v-3.72h-.7v-.49h.7v-.56c0-.73.25-1.47,1.18-1.47a1.87,1.87,0,0,1,.44.06v.5a2,2,0,0,0-.42,0c-.46,0-.64.31-.64,1v.52h.88v.49H347v3.72Z"/><path class="cls-11" d="M351.45,177.51a5,5,0,0,0,.06.86H351a2.61,2.61,0,0,1-.07-.61,1.36,1.36,0,0,1-1.35.71,1.26,1.26,0,0,1-1.4-1.28c0-.93.72-1.35,2-1.35h.76v-.4c0-.4-.12-.91-1-.91s-.91.4-1,.74h-.55c0-.52.37-1.21,1.55-1.21,1,0,1.55.41,1.55,1.35Zm-.55-1.25h-.76c-.89,0-1.41.24-1.41.91a.81.81,0,0,0,.9.83c1.12,0,1.27-.75,1.27-1.59Z"/><path class="cls-15" d="M402.32,297.8a6.8,6.8,0,0,0-.65-1.49c-5-8.63-27.13-5.12-49.38,7.83s-36.21,30.46-31.18,39.08a7.63,7.63,0,0,0,2.51,2.58l82.75,55.63A4.89,4.89,0,0,0,414,396.8Z"/><ellipse class="cls-16" cx="361.39" cy="319.77" rx="46.62" ry="18.08" transform="translate(-111.82 225.3) rotate(-30.21)"/><g class="cls-17"><rect class="cls-18" x="304.66" y="352.2" width="121" height="28" transform="translate(267.22 -141.59) rotate(34)"/></g><path class="cls-19" d="M342.34,153.57c-.61-.22-5.83-1.95-9.39,1-4.42,3.67-3.74,11.94-.25,15.82,5.21,5.79,13.06,3.6,14.22,3.28,3.73-1,9-1.38,11.43-.54,4,1.39,7.59,5.24,7.45,10.19-.12,4.58-3.28,7.43-8.2,11.87-5.87,5.28-8.6,5.16-10.08,9.32-.28.81-2.21,6.24,1.19,10.86a11.26,11.26,0,0,0,10,4.42l26.41-19.32a7.2,7.2,0,0,1,5.17.14,9.79,9.79,0,0,1,5.59,7.64c.27,2.73-1.33,3-2.71,7.84-.85,3-1.61,5.62-.68,8.32,1.63,4.7,7.47,6.86,8.73,7.3"/><circle class="cls-5" cx="195" cy="38.6" r="2"/><circle class="cls-5" cx="358.25" cy="314.58" r="2"/><circle class="cls-6" cx="348.53" cy="245.55" r="2"/><circle class="cls-5" cx="273.26" cy="216.63" r="2"/><circle class="cls-5" cx="289" cy="341.6" r="2"/><circle class="cls-5" cx="259.56" cy="257.01" r="2"/></g></g></g></svg>