<svg xmlns="http://www.w3.org/2000/svg" xmlns:xlink="http://www.w3.org/1999/xlink" viewBox="0 0 415.66 334.11"><defs><style>.cls-1,.cls-2,.cls-3,.cls-6,.cls-7,.cls-8{fill:none;}.cls-1,.cls-7{stroke:#fc5d03;}.cls-1,.cls-2,.cls-3{stroke-linecap:round;stroke-linejoin:round;}.cls-1,.cls-3{stroke-width:5px;}.cls-2,.cls-6{stroke:#f9b312;}.cls-2{stroke-width:7px;}.cls-3{stroke:#2830a6;}.cls-4{fill:#fc5d03;}.cls-5{fill:#1d2486;}.cls-6,.cls-7,.cls-8{stroke-miterlimit:10;stroke-width:4px;}.cls-8{stroke:#fe8aa6;}.cls-9{fill:url(#Безымянный_градиент_19);}.cls-10{fill:#fff;}.cls-11{fill:#68d391;}.cls-12{fill:url(#Безымянный_градиент_19-2);}</style><linearGradient id="Безымянный_градиент_19" x1="132.94" y1="217.87" x2="-0.39" y2="146.45" gradientUnits="userSpaceOnUse"><stop offset="0" stop-color="#f96"/><stop offset="1" stop-color="#ff5e62"/></linearGradient><linearGradient id="Безымянный_градиент_19-2" x1="401.72" y1="153.29" x2="149.44" y2="18.14" xlink:href="#Безымянный_градиент_19"/></defs><g id="Слой_2" data-name="Слой 2"><g id="Слой_1-2" data-name="Слой 1"><path class="cls-1" d="M210.91,306.59c-.4-.46-3.7-4.32-2.41-8.39,1.6-5.06,8.91-7.35,13.44-5.72,6.77,2.43,7.63,9.92,7.76,11,.42,3.55,2,8.19,3.52,10,2.58,2.92,7.12,4.66,11.3,2.82,3.88-1.7,5.21-5.39,7.29-11.15,2.48-6.86,1.43-9.15,4.47-11.86.59-.52,4.56-4.06,9.7-2.76a10.36,10.36,0,0,1,7.25,7l-7.32,29.3a6.69,6.69,0,0,0,1.91,4.37,9,9,0,0,0,8.48,2.12c2.44-.72,2.14-2.19,5.77-5,2.24-1.76,4.24-3.33,6.87-3.47,4.59-.25,8.47,4,9.28,4.91" transform="translate(-2.04 -2)"/><path class="cls-2" d="M165.45,99.61c-.09-.79-.81-7.51,3.67-11,5.56-4.34,15.3-1.35,19,3.84,5.59,7.76.9,16.61.22,17.92-2.21,4.21-4,10.46-3.64,13.56.64,5.15,4.3,10.47,10.27,11.61,5.54,1.05,9.77-2,16.39-6.75,7.87-5.65,8.44-9,13.81-9.64,1-.13,8.06-1,12.71,4.27a13.77,13.77,0,0,1,2.69,13.13l-30.07,26.63a8.87,8.87,0,0,0-1.19,6.22,12,12,0,0,0,7.71,8.71c3.21,1,4-.8,10.11-1.2,3.78-.25,7.16-.46,10.15,1.36,5.21,3.19,6.28,10.75,6.48,12.37" transform="translate(-2.04 -2)"/><path class="cls-3" d="M356.34,140c-.61-.22-5.83-1.95-9.39,1-4.42,3.67-3.74,11.94-.25,15.82,5.21,5.79,13.06,3.6,14.22,3.28,3.73-1,9-1.38,11.43-.54,4,1.4,7.59,5.24,7.45,10.19-.12,4.58-3.28,7.43-8.2,11.87-5.87,5.28-8.6,5.17-10.08,9.32-.28.81-2.21,6.24,1.19,10.86a11.26,11.26,0,0,0,10,4.42l26.41-19.32a7.26,7.26,0,0,1,5.17.14,9.79,9.79,0,0,1,5.59,7.64c.27,2.74-1.33,3-2.71,7.84-.85,3-1.61,5.62-.68,8.32,1.63,4.7,7.47,6.86,8.73,7.3" transform="translate(-2.04 -2)"/><circle class="cls-4" cx="146.44" cy="170.9" r="2"/><circle class="cls-4" cx="261.57" cy="54.05" r="2"/><circle class="cls-4" cx="325.73" cy="232.77" r="2"/><circle class="cls-4" cx="138.42" cy="264.27" r="2"/><circle class="cls-5" cx="197.99" cy="239.07" r="2"/><circle class="cls-6" cx="317.71" cy="64.36" r="7.5"/><circle class="cls-7" cx="100.46" cy="239.5" r="7.5"/><circle class="cls-8" cx="318.28" cy="233.34" r="7.5"/><path class="cls-9" d="M107.26,263.26,6.31,274.31c-3.49.38-5.18-2.1-3.78-5.54L54.47,141.09c1.4-3.44,4.69-7.22,7.36-8.45l77.34-35.43c2.67-1.22,4.22,1.12,3.48,5.24L114.92,255.12C114.18,259.24,110.75,262.88,107.26,263.26Z" transform="translate(-2.04 -2)"/><path class="cls-10" d="M51.65,172.93l1.55-4.15a.66.66,0,0,0,.06-.35l-.57-6,2.33-.84c.06,1.5.14,3.52.14,4.63C56,164.81,58,162,59.35,160l2.15-.78-6,8.43a1.21,1.21,0,0,0-.22.4l-1.55,4.21Z" transform="translate(-2.04 -2)"/><path class="cls-10" d="M65,164.47c-.93,2.73-2.95,5.18-5.26,5.95s-2.87-.77-1.91-3.43,3-5.17,5.31-6C65.24,160.25,66,161.64,65,164.47Zm-5.13,1.78c-.61,1.73-.37,2.54.6,2.21s1.89-1.54,2.49-3.26c.65-1.88.41-2.57-.58-2.22S60.54,164.36,59.86,166.25Z" transform="translate(-2.04 -2)"/><path class="cls-10" d="M72.11,163.74l-.85,2.66-2,.66c.06-.24.2-.72.29-1A4.6,4.6,0,0,1,67.15,168c-1.49.5-2.06-.31-1.29-2.55l2-5.9,2-.71L68,164.21c-.33,1-.36,1.75.51,1.45s1.5-1,2.09-2.86l1.6-4.86,2-.71Z" transform="translate(-2.04 -2)"/><path class="cls-10" d="M80.53,151.59l2-.72-.71,2.29-2,.72Zm-1.18,3.8,2-.71L78.5,164l-2,.67Z" transform="translate(-2.04 -2)"/><path class="cls-10" d="M82.57,160.09c-.07.7.28,1,1,.7a1.79,1.79,0,0,0,1.28-1.25c.18-.61-.06-.74-1-.71-2.13.06-2.23-.75-1.84-2.07a6.06,6.06,0,0,1,3.76-3.86c2.18-.78,2.46.52,2.16,1.78l-1.9.66c0-.32,0-.92-.88-.59a1.69,1.69,0,0,0-1.11,1.11c-.14.47,0,.61,1.08.56,2.2-.11,2.23.86,1.84,2.24a6.16,6.16,0,0,1-4,4c-2.21.74-2.72-.32-2.38-1.92Z" transform="translate(-2.04 -2)"/><path class="cls-10" d="M44.13,185.52l1.15-.35.9-2.38,2.06-.63-.89,2.39,1.46-.45-.68,1.84-1.47.44L45,190.74c-.25.67-.17.88.45.7a3.91,3.91,0,0,0,.49-.16L45.34,193a6.5,6.5,0,0,1-1.47.57c-1.48.41-1.62-.37-1-1.91L44.58,187l-1.15.35Z" transform="translate(-2.04 -2)"/><path class="cls-10" d="M53.37,179.47l-1.7,4.7a5.54,5.54,0,0,1,2.59-1.91c1.4-.42,2.16.24,1.3,2.68l-2,5.76-2.09.59,1.91-5.37c.41-1.17.28-1.68-.59-1.42-1.15.34-1.74,1.43-2.24,2.8L48.83,192l-2.1.59,4.59-12.51Z" transform="translate(-2.04 -2)"/><path class="cls-10" d="M58.47,185.71c-.39,1.14-.29,2.11.75,1.81a2.7,2.7,0,0,0,1.65-1.35l2.09-.6a7.8,7.8,0,0,1-4.46,3.93c-2.5.7-2.81-1.21-2-3.58,1-2.83,2.87-5.21,5.27-5.94,2.56-.77,2.69,1.23,1.94,3.51-.1.31-.17.51-.28.78Zm3.42-2.39c.34-1,.29-1.84-.72-1.54A3.75,3.75,0,0,0,59,184.16Z" transform="translate(-2.04 -2)"/><path class="cls-10" d="M71.11,173.93l2-.64-1.49,4.78a4.82,4.82,0,0,1,2.51-1.85c2-.61,2.41,1.18,1.62,3.8s-2.63,5.37-4.81,6c-1.13.32-1.5,0-1.66-.53a8.45,8.45,0,0,1-.35.9l-2,.56c.33-1,.65-2,1-3Zm2.57,6.76c.47-1.55.35-2.55-.77-2.22s-1.9,1.43-2.49,3.32c-.49,1.56-.48,2.65.74,2.3C72.22,183.78,73.14,182.45,73.68,180.69Z" transform="translate(-2.04 -2)"/><path class="cls-10" d="M78.77,179.82c-.35,1.17-.21,2.19.83,1.89a2.52,2.52,0,0,0,1.61-1.39l2.09-.6A7.39,7.39,0,0,1,79,183.77c-2.5.7-2.9-1.3-2.17-3.76.87-2.94,2.7-5.4,5.09-6.13,2.56-.77,2.77,1.32,2.11,3.69-.09.32-.15.52-.25.8Zm3.36-2.45c.3-1.1.22-1.92-.79-1.62a3.6,3.6,0,0,0-2.06,2.46Z" transform="translate(-2.04 -2)"/><path class="cls-10" d="M86.37,178.84c-.05.71.32,1,1.1.78a1.69,1.69,0,0,0,1.31-1.23c.16-.62-.09-.77-1.08-.79-2.25,0-2.38-.89-2-2.24a5.62,5.62,0,0,1,3.83-3.79c2.26-.69,2.6.67,2.32,2l-2,.59c0-.34,0-1-1-.66a1.57,1.57,0,0,0-1.13,1.09c-.13.47,0,.63,1.16.64,2.31,0,2.37,1,2,2.41a5.73,5.73,0,0,1-4.07,4c-2.31.64-2.87-.48-2.57-2.12Z" transform="translate(-2.04 -2)"/><path class="cls-10" d="M93.3,170.63l1.15-.35.68-2.61,2.06-.64-.67,2.62,1.46-.44-.51,2-1.47.44-1.22,4.77c-.19.74-.09,1,.54.79a3.83,3.83,0,0,0,.48-.16l-.47,1.85a5.7,5.7,0,0,1-1.45.58c-1.49.41-1.71-.46-1.27-2.14l1.32-5.08-1.16.35Z" transform="translate(-2.04 -2)"/><path class="cls-10" d="M36.22,213.15l-1.56,4.16-2.18.49,3.82-10c.27-.71.54-1.41.79-2.11l2.08-.53c-.06.23-.22.76-.34,1.08a5.21,5.21,0,0,1,2.74-1.87c1.74-.44,2.48.89,1.48,3.65-1.14,3.15-3.3,5.24-5.21,5.69C36.73,213.93,36.33,213.6,36.22,213.15Zm4.6-4.53c.6-1.62.36-2.4-.67-2.14-1.22.3-2,1.3-2.66,3.08s-.59,2.56.59,2.28S40.16,210.43,40.82,208.62Z" transform="translate(-2.04 -2)"/><path class="cls-10" d="M46.09,208c-.4,1.12-.29,2.1.79,1.84a2.58,2.58,0,0,0,1.7-1.28l2.18-.52a7.52,7.52,0,0,1-4.62,3.76c-2.6.6-2.93-1.33-2.09-3.67,1-2.8,3-5.12,5.46-5.75,2.66-.68,2.8,1.34,2,3.6-.11.31-.17.51-.29.77Zm3.55-2.26c.35-1.05.29-1.84-.76-1.58a3.59,3.59,0,0,0-2.21,2.3Z" transform="translate(-2.04 -2)"/><path class="cls-10" d="M53.68,203.72c.3-.91.57-1.71.81-2.46l2.11-.53c0,.19-.31,1.09-.48,1.58a5.3,5.3,0,0,1,3.09-2.44l-.79,2.42c-1.55.34-2.64,1.06-3.47,3.56l-1.32,4-2.19.51Z" transform="translate(-2.04 -2)"/><path class="cls-10" d="M59.93,205.8c-.07.69.31,1,1.13.79a1.67,1.67,0,0,0,1.37-1.16c.19-.59-.07-.74-1.09-.8-2.32-.12-2.43-.95-2-2.24a5.55,5.55,0,0,1,4-3.57c2.35-.6,2.67.74,2.35,2l-2,.5c0-.32,0-.92-1-.67a1.55,1.55,0,0,0-1.2,1c-.14.45,0,.61,1.18.65,2.38.08,2.42,1.06,2,2.42a5.7,5.7,0,0,1-4.3,3.72c-2.39.55-2.94-.56-2.59-2.15Z" transform="translate(-2.04 -2)"/><path class="cls-10" d="M74.05,200.66c-.82,2.85-2.85,5.28-5.35,5.86s-3.24-1.16-2.39-3.93,2.94-5.26,5.41-5.89C74,196.13,74.91,197.71,74.05,200.66ZM68.51,202c-.54,1.8-.21,2.71.84,2.46s2-1.46,2.5-3.25c.58-2,.25-2.74-.82-2.48S69.11,200.05,68.51,202Z" transform="translate(-2.04 -2)"/><path class="cls-10" d="M76.22,198c.23-.8.48-1.68.66-2.37l2.08-.53c0,.24-.18.89-.26,1.19a4.67,4.67,0,0,1,2.65-2c1.56-.39,2.22.65,1.57,3.05l-1.64,6.09-2.19.5,1.59-5.76c.3-1.08.22-1.78-.73-1.54s-1.62,1-2.09,2.65l-1.48,5.28L74.2,205Z" transform="translate(-2.04 -2)"/><path class="cls-10" d="M85.44,198.08l1.29-5.88.59-2.22,2.27-.59L89,191.64l-1.82,6ZM84,202.77l.81-3.08,2.13-.51-.8,3.09Z" transform="translate(-2.04 -2)"/><path class="cls-10" d="M27.86,230.22l-2.13,5.61-.54.1,2.14-5.6Z" transform="translate(-2.04 -2)"/><path class="cls-10" d="M28,231.64l.68-.13.46-1.23.5-.1-.46,1.23.86-.16-.18.47-.86.16-.95,2.52c-.16.43-.15.65.2.58a1.73,1.73,0,0,0,.38-.11l-.17.44a1.78,1.78,0,0,1-.54.17c-.53.09-.68-.15-.43-.81l1-2.69-.67.13Z" transform="translate(-2.04 -2)"/><path class="cls-10" d="M30.67,231.27a15,15,0,0,0,1.1-2.1l.51-.1a14.64,14.64,0,0,1-1.18,2.12Z" transform="translate(-2.04 -2)"/><path class="cls-10" d="M31.19,233.76c-.07.47.15.7.71.6a1.41,1.41,0,0,0,1.13-.89c.15-.42,0-.6-.66-.65-.92-.08-1-.37-.82-.92a2.25,2.25,0,0,1,1.69-1.36c.9-.17,1.09.33.94.9l-.49.09c.05-.29,0-.65-.63-.53a1.23,1.23,0,0,0-1,.76c-.12.35,0,.49.63.54,1,.07,1.1.42.87,1a2.41,2.41,0,0,1-1.84,1.49c-.91.17-1.21-.26-1-1Z" transform="translate(-2.04 -2)"/><path class="cls-10" d="M37.93,229.72l-1.54,4.35c-.4,1.12-.78,1.54-1.51,1.67l-.23,0,.17-.49.16,0c.5-.09.66-.39.88-1l1.58-4.42Zm-.12-1,.3-.85.5-.09-.3.84Z" transform="translate(-2.04 -2)"/><path class="cls-10" d="M41,231.88c-.14.4-.35,1-.41,1.21l-.49.09c0-.11.11-.37.21-.68a2.2,2.2,0,0,1-1.45,1c-.58.11-1.14-.06-.71-1.28l1-2.72.49-.1L38.68,232c-.21.57-.23,1.09.46,1s1.23-.67,1.62-1.79L41.5,229l.5-.1Z" transform="translate(-2.04 -2)"/><path class="cls-10" d="M42.24,231.68c-.05.48.17.72.73.62a1.35,1.35,0,0,0,1.11-.9c.15-.43.05-.61-.67-.67-.92-.08-1-.38-.85-.94a2.2,2.2,0,0,1,1.68-1.38c.9-.18,1.1.34,1,.92l-.49.1c0-.31,0-.67-.65-.55a1.2,1.2,0,0,0-1,.77c-.12.35,0,.49.64.55,1,.08,1.11.44.9,1.06a2.37,2.37,0,0,1-1.82,1.51c-.92.17-1.22-.26-1.06-1Z" transform="translate(-2.04 -2)"/><path class="cls-10" d="M46,228.16l.67-.13.43-1.27.49-.1-.42,1.28.86-.17-.16.49-.86.16-.87,2.6c-.15.44-.14.67.21.6a1.47,1.47,0,0,0,.38-.11l-.15.45a1.82,1.82,0,0,1-.53.17c-.54.1-.7-.15-.47-.83l.93-2.78-.68.13Z" transform="translate(-2.04 -2)"/><path class="cls-10" d="M51.29,225.31l.5-.1-.85,2.61a2.36,2.36,0,0,1,1.49-1c.91-.18,1.26.55.85,1.83a3.58,3.58,0,0,1-2.37,2.62c-.62.11-.88-.09-.93-.5-.08.24-.17.5-.22.62l-.48.09c.16-.48.31-1,.47-1.44Zm1.47,3.45c.32-1,.1-1.56-.58-1.42-.87.16-1.4.89-1.74,1.95s-.28,1.65.6,1.49A2.7,2.7,0,0,0,52.76,228.76Z" transform="translate(-2.04 -2)"/><path class="cls-10" d="M54.38,228.61c-.31,1-.07,1.56.62,1.43a1.84,1.84,0,0,0,1.23-.92l.51-.09a2.91,2.91,0,0,1-1.92,1.52c-1.16.21-1.27-.8-.93-1.89a3.57,3.57,0,0,1,2.37-2.58c1.18-.23,1.21.82,1,1.67a3.59,3.59,0,0,1-.12.35Zm2.35-.85c.23-.78.06-1.33-.63-1.2a2.33,2.33,0,0,0-1.56,1.61Z" transform="translate(-2.04 -2)"/><path class="cls-10" d="M60.65,228.16a2.86,2.86,0,0,1-1.93,1.66c-1,.19-1.39-.51-1-1.91a3.65,3.65,0,0,1,2.38-2.59c1-.19,1.14.56,1,1.13l-.51.09c0-.45-.09-.83-.68-.71a2.64,2.64,0,0,0-1.69,2c-.3,1-.14,1.67.59,1.53a1.89,1.89,0,0,0,1.27-1.07Z" transform="translate(-2.04 -2)"/><path class="cls-10" d="M64.06,227.91a6.42,6.42,0,0,0-.2.87l-.48.09a3,3,0,0,1,.11-.61,2.17,2.17,0,0,1-1.41,1c-.88.16-1.07-.42-.87-1.07a2.54,2.54,0,0,1,2.18-1.73l.68-.13.12-.4c.12-.41.17-.92-.61-.77a1.46,1.46,0,0,0-1.11.93l-.49.09a2.32,2.32,0,0,1,1.75-1.5c.88-.17,1.25.16,1,1.12ZM64,226.72l-.68.13A1.72,1.72,0,0,0,61.74,228c-.15.5,0,.79.55.7,1-.19,1.36-1,1.62-1.84Z" transform="translate(-2.04 -2)"/><path class="cls-10" d="M68.22,226.77c-.12.42-.3,1.06-.35,1.27l-.49.09c0-.11.09-.39.18-.71a2,2,0,0,1-1.41,1c-.59.11-1.16-.06-.79-1.34l.84-2.86.49-.1-.79,2.73c-.18.61-.18,1.15.51,1s1.21-.7,1.55-1.87l.64-2.25.5-.09Z" transform="translate(-2.04 -2)"/><path class="cls-10" d="M69.48,226.58c0,.5.21.75.77.65a1.26,1.26,0,0,0,1.07-.93c.13-.46,0-.64-.71-.72-.93-.09-1.07-.4-.9-1a2.1,2.1,0,0,1,1.62-1.44c.9-.17,1.13.38,1,1l-.49.1c0-.32-.06-.7-.67-.59a1.16,1.16,0,0,0-1,.81c-.1.37,0,.52.68.58,1,.1,1.14.47,1,1.13a2.25,2.25,0,0,1-1.77,1.56c-.91.17-1.24-.28-1.12-1.05Z" transform="translate(-2.04 -2)"/><path class="cls-10" d="M73.22,225.05c-.27,1,0,1.61.67,1.48a1.8,1.8,0,0,0,1.21-.94l.51-.1a2.78,2.78,0,0,1-1.88,1.56c-1.16.22-1.31-.83-1-2a3.46,3.46,0,0,1,2.3-2.66c1.18-.23,1.25.85,1,1.73,0,.13-.07.25-.11.37Zm2.33-.87c.21-.81,0-1.38-.67-1.24a2.25,2.25,0,0,0-1.51,1.65Z" transform="translate(-2.04 -2)"/><path class="cls-10" d="M79.48,221.67c-.06,2.1-.1,3.3-.14,3.71h0c.16-.39.81-1.71,2-4.05l.51-.1c0,2.52,0,3.25-.07,3.61h0c.23-.5.56-1.2,1.88-4l.51-.1-2.31,4.68-.54.1c0-1.52,0-3.17.08-3.6h0c-.19.47-1,2-1.9,3.94l-.58.11.07-4.22Z" transform="translate(-2.04 -2)"/><path class="cls-10" d="M84.49,222.92c-.26,1,0,1.64.7,1.51a1.73,1.73,0,0,0,1.2-1l.5-.09A2.68,2.68,0,0,1,85,225c-1.16.22-1.33-.86-1-2a3.41,3.41,0,0,1,2.26-2.7c1.18-.23,1.26.88,1,1.77,0,.13-.06.25-.1.38Zm2.32-.88c.2-.82,0-1.4-.69-1.27a2.21,2.21,0,0,0-1.49,1.68Z" transform="translate(-2.04 -2)"/><path class="cls-10" d="M89.47,224l1.59-6.6.5-.09L90,224Z" transform="translate(-2.04 -2)"/><path class="cls-10" d="M94.83,220.86a3.4,3.4,0,0,1-2.3,2.72c-1,.19-1.45-.69-1.12-2.06a3.4,3.4,0,0,1,2.28-2.7C94.71,218.62,95.16,219.44,94.83,220.86Zm-2.9.56c-.25,1,0,1.76.76,1.62A2.48,2.48,0,0,0,94.3,221c.25-1.05,0-1.77-.76-1.62A2.52,2.52,0,0,0,91.93,221.42Z" transform="translate(-2.04 -2)"/><path class="cls-10" d="M96.32,218.41c.1,1.88.18,3.21.17,3.77h0c.18-.44.91-1.88,2.06-4.2l.51-.1-2.43,4.83-.58.11-.28-4.3Z" transform="translate(-2.04 -2)"/><path class="cls-10" d="M99.43,220.09c-.23,1.07.06,1.69.74,1.56a1.69,1.69,0,0,0,1.18-1l.51-.1a2.65,2.65,0,0,1-1.82,1.62c-1.17.21-1.36-.89-1.1-2.06a3.37,3.37,0,0,1,2.2-2.76c1.18-.22,1.3.91,1.1,1.83l-.09.38Zm2.32-.89c.17-.84,0-1.44-.73-1.3s-1.19.81-1.46,1.71Z" transform="translate(-2.04 -2)"/><path class="cls-10" d="M23,241.54c-.12,2-.17,3-.21,3.38h0c.32-.5,1-1.49,2.47-3.78l.52-.09-3,4.51c-.85,1.26-1.24,1.59-2,1.71a2.31,2.31,0,0,1-.37,0l.19-.49.33,0c.52-.09.8-.38,1.34-1.18l.16-4Z" transform="translate(-2.04 -2)"/><path class="cls-10" d="M28.91,242.42a3.67,3.67,0,0,1-2.55,2.44c-1.06.18-1.38-.62-.92-1.84A3.73,3.73,0,0,1,28,240.58C29,240.4,29.38,241.14,28.91,242.42Zm-2.94.5c-.35.94-.16,1.58.6,1.46a2.68,2.68,0,0,0,1.81-1.86c.35-1,.18-1.59-.6-1.46A2.7,2.7,0,0,0,26,242.92Z" transform="translate(-2.04 -2)"/><path class="cls-10" d="M32.46,242.63l-.42,1.2-.5.08c0-.1.11-.36.22-.66a2.15,2.15,0,0,1-1.48,1c-.59.1-1.16-.07-.72-1.28l1-2.7.5-.09-.94,2.58c-.21.58-.23,1.09.47,1s1.25-.65,1.65-1.76L33,239.8l.51-.08Z" transform="translate(-2.04 -2)"/><path class="cls-10" d="M36.11,240.77l4.09-2.62-.21.6-3.42,2.16,2.25,1.27-.2.59-2.68-1.52Z" transform="translate(-2.04 -2)"/><path class="cls-10" d="M41.23,238.35a2.77,2.77,0,0,1,2-1.62c1-.17,1.21.43,1,1.14a2.15,2.15,0,0,1-1.06,1.26v0c.44.08.71.44.44,1.26a2.93,2.93,0,0,1-2.26,2c-1.08.18-1.33-.49-1.16-1.2l.51-.09c-.06.51.15.91.84.8a2,2,0,0,0,1.52-1.4c.27-.81-.08-1.07-.79-.95l-.32.05.16-.48.26,0A1.58,1.58,0,0,0,43.64,238c.18-.54,0-.86-.63-.75a1.8,1.8,0,0,0-1.29,1Z" transform="translate(-2.04 -2)"/><path class="cls-10" d="M15.93,259.74a2.35,2.35,0,0,1,1.72-1.28c.85-.12,1,.38.81,1a1.8,1.8,0,0,1-.93,1h0c.38.08.6.38.35,1a2.45,2.45,0,0,1-2,1.58c-.92.12-1.12-.43-1-1l.44-.06c-.06.41.12.74.71.67a1.7,1.7,0,0,0,1.33-1.11c.24-.65-.06-.87-.67-.79l-.27,0,.14-.39.23,0a1.3,1.3,0,0,0,1.16-.87c.17-.44,0-.7-.52-.63a1.55,1.55,0,0,0-1.12.82Z" transform="translate(-2.04 -2)"/><path class="cls-10" d="M22.54,261.44a5.38,5.38,0,0,0-.21.69l-.42.05a2.33,2.33,0,0,1,.13-.48,1.93,1.93,0,0,1-1.26.71c-.77.1-.91-.38-.72-.89a2.18,2.18,0,0,1,2-1.3l.59-.08.12-.32c.12-.33.18-.73-.51-.64a1.26,1.26,0,0,0-1,.71l-.43.05a2,2,0,0,1,1.57-1.14c.77-.1,1.08.17.8.93Zm-.06-1-.59.08a1.49,1.49,0,0,0-1.37.88c-.14.39,0,.63.46.58.87-.12,1.21-.74,1.46-1.42Z" transform="translate(-2.04 -2)"/><path class="cls-10" d="M26,261.39A2.52,2.52,0,0,1,24,263.28c-.92.11-1.06-.38-.95-.87l.45-.05c-.05.41.21.58.66.52.81-.1,1.21-.67,1.51-1.5l.12-.32a1.84,1.84,0,0,1-1.3.79c-.79.1-1.12-.49-.75-1.53a2.9,2.9,0,0,1,2.06-2c.65-.09.81.19.8.44l.2-.5.41-.06c-.05.16-.25.67-.36,1Zm-1.86-1.15c-.28.78-.09,1.27.5,1.19.77-.1,1.19-.67,1.49-1.5s.24-1.29-.5-1.19A2.07,2.07,0,0,0,24.16,260.24Z" transform="translate(-2.04 -2)"/><path class="cls-10" d="M27.84,259c.19-.53.27-.79.32-.93l.43-.06c0,.1-.11.35-.25.74a2.27,2.27,0,0,1,1.42-1l-.17.48A2.1,2.1,0,0,0,28,259.73l-.61,1.74-.44.06Z" transform="translate(-2.04 -2)"/><path class="cls-10" d="M29.87,259.57c-.27.8-.07,1.28.53,1.2a1.52,1.52,0,0,0,1.08-.71l.45-.06a2.4,2.4,0,0,1-1.69,1.18c-1,.13-1.1-.71-.8-1.59a2.88,2.88,0,0,1,2.1-2c1-.14,1.05.72.81,1.42,0,.1-.07.19-.11.28Zm2.06-.62c.21-.63.06-1.09-.54-1A1.89,1.89,0,0,0,30,259.21Z" transform="translate(-2.04 -2)"/><path class="cls-10" d="M33.25,259.12c-.27.81-.06,1.29.53,1.21a1.51,1.51,0,0,0,1.08-.72l.45-.06a2.36,2.36,0,0,1-1.68,1.19c-1,.13-1.11-.72-.81-1.6a2.87,2.87,0,0,1,2.08-2.05c1-.14,1.06.73.82,1.43a2.31,2.31,0,0,1-.1.28Zm2-.62c.21-.63.06-1.1-.54-1a1.87,1.87,0,0,0-1.37,1.27Z" transform="translate(-2.04 -2)"/><path class="cls-10" d="M40.19,254.9,38.83,259c-.11.33-.21.65-.32,1l-.42.05a4.92,4.92,0,0,1,.16-.54,1.85,1.85,0,0,1-1.28.77c-.86.11-1.13-.56-.77-1.62a2.89,2.89,0,0,1,2.08-2.06c.62-.09.78.16.81.36l.67-2Zm-3.53,3.72c-.3.9,0,1.34.5,1.26.83-.1,1.24-.75,1.52-1.62s.27-1.33-.52-1.22A2.09,2.09,0,0,0,36.66,258.62Z" transform="translate(-2.04 -2)"/><path class="cls-11" d="M105.52,248.58c-.71,3.56-3.74,6.75-6.76,7.12s-4.86-2.16-4.09-5.66,3.8-6.68,6.77-7.11S106.24,245,105.52,248.58Z" transform="translate(-2.04 -2)"/><path class="cls-10" d="M82.66,254.19l.47-1.94a.24.24,0,0,0,0-.12l-.85-2.93.53-.07c.23.8.61,2.16.71,2.55.29-.44,1.38-2,2-2.94l.5-.07-2.43,3.41a.48.48,0,0,0,0,.12l-.46,1.93Z" transform="translate(-2.04 -2)"/><path class="cls-10" d="M88,251.66a2.68,2.68,0,0,1-2,2.19c-.91.12-1.28-.65-1-1.78a2.68,2.68,0,0,1,2-2.19C87.82,249.76,88.22,250.47,88,251.66Zm-2.53.34c-.21.87,0,1.49.68,1.4s1.18-.76,1.39-1.67,0-1.49-.68-1.4S85.63,251.12,85.42,252Z" transform="translate(-2.04 -2)"/><path class="cls-10" d="M91.08,252c-.09.37-.21.93-.25,1.11l-.42.05c0-.09.06-.34.12-.61a1.55,1.55,0,0,1-1.19.84c-.52.07-1-.12-.77-1.24l.58-2.5.43-.06L89,252c-.12.53-.09,1,.51.93s1-.55,1.26-1.58l.45-2,.43-.06Z" transform="translate(-2.04 -2)"/><path class="cls-10" d="M99.54,247.28,99,250c-.22,1,.19,1.23.7,1.17s1-.4,1.17-1.42l.57-2.75,1-.14-.57,2.79a2.75,2.75,0,0,1-2.39,2.44c-1.2.16-1.82-.39-1.5-1.89l.6-2.81Z" transform="translate(-2.04 -2)"/><circle class="cls-5" cx="163.17" cy="47.84" r="2"/><circle class="cls-4" cx="340.74" cy="48.68" r="2"/><path class="cls-12" d="M389.81,177.78,280.9,169.87c-3.8-.28-7.28-3.91-7.78-8.1L255,7.6c-.49-4.2,1.46-6.54,4.37-5.24l83.28,37.31c2.91,1.3,6.25,5.09,7.46,8.47l44.43,124C395.71,175.54,393.61,178.06,389.81,177.78Z" transform="translate(-2.04 -2)"/><path class="cls-10" d="M272.69,54.7,272,49.92a1.35,1.35,0,0,0-.15-.47l-4.71-9.54,2.5.87c1.08,2.32,2.5,5.39,3.23,7,.25-1.26,1-3.71,1.44-5.39l2.32.8-2.37,7a.63.63,0,0,0,0,.41l.71,4.8Z" transform="translate(-2.04 -2)"/><path class="cls-10" d="M284.57,53.71c.5,3-.55,4.76-3,4s-4.21-3.44-4.67-6.44.64-4.81,3.1-4C282.23,48.05,284.05,50.61,284.57,53.71Zm-5.52-1.78c.3,1.93,1.13,3.28,2.18,3.61s1.47-.61,1.16-2.51c-.34-2.08-1.1-3.26-2.17-3.62S278.72,49.81,279.05,51.93Z" transform="translate(-2.04 -2)"/><path class="cls-10" d="M293.31,58.5c.17.93.37,2,.54,2.83l-2.13-.67c-.08-.27-.19-.8-.27-1.15-.29.84-.91,1-1.92.68-1.6-.5-2.84-2-3.26-4.49l-1.1-6.43,2.14.72,1,5.86a2.73,2.73,0,0,0,1.56,2.37c1,.31,1.28-.22.93-2.15l-.95-5.21,2.15.73Z" transform="translate(-2.04 -2)"/><path class="cls-10" d="M296.79,49.52l2.13.75.48,2.36-2.14-.73Zm.78,3.95,2.14.73,2,9.58-2.18-.69Z" transform="translate(-2.04 -2)"/><path class="cls-10" d="M304.55,62a2.74,2.74,0,0,0,1.73,1.66c.8.25,1,0,.9-.58s-.52-1-1.72-1.65c-2.7-1.59-3.32-2.68-3.59-4s.2-2.62,2.53-1.83a5.89,5.89,0,0,1,3.84,3.93l-2.05-.68a2.33,2.33,0,0,0-1.49-1.44c-.71-.24-.86.07-.77.5s.39.78,1.73,1.56c2.76,1.59,3.37,2.78,3.67,4.16.35,1.56-.33,2.67-2.73,1.92a6.11,6.11,0,0,1-4.18-4.2Z" transform="translate(-2.04 -2)"/><path class="cls-10" d="M271.18,67.14l1.24.34L272,64.72l2.22.64.39,2.75,1.58.44.3,2.11L275,70.22l.71,5c.11.77.35,1.12,1,1.29a3.07,3.07,0,0,0,.51.1l.28,1.93a4.18,4.18,0,0,1-1.5-.19c-1.59-.41-2.27-1.61-2.52-3.4l-.74-5.36-1.24-.35Z" transform="translate(-2.04 -2)"/><path class="cls-10" d="M279.1,65.41l.81,5.31c.25-.55.79-1.13,2.09-.77,1.5.42,2.87,1.86,3.31,4.56l1,6.39-2.25-.58-1-6c-.21-1.3-.69-2.1-1.63-2.35-1.24-.35-1.31.74-1.07,2.29l.81,5.33L279,79l-2.11-14.24Z" transform="translate(-2.04 -2)"/><path class="cls-10" d="M289.45,77.53c.22,1.24.93,2.58,2.06,2.87.94.25,1.13-.14,1.24-.67l2.25.59c-.07,1.12-.61,2.86-3.18,2.2s-4.27-3.43-4.71-6c-.51-3.11.42-5,3-4.25,2.76.78,4.14,3.48,4.59,5.92.06.33.09.54.12.81Zm2.85-.83a2.94,2.94,0,0,0-1.85-2.52c-1.08-.29-1.35.49-1.24,1.68Z" transform="translate(-2.04 -2)"/><path class="cls-10" d="M298.24,71l2.21.65,1,5c.21-.52.75-1,2.06-.59,2.19.61,3.73,3.06,4.28,5.74s-.13,4.84-2.48,4.24a3.67,3.67,0,0,1-2.37-1.69,6.52,6.52,0,0,1,.09.89l-2.17-.56c-.18-1-.39-2.11-.59-3.16Zm7.26,10.2c-.32-1.59-1.06-2.9-2.27-3.24s-1.53.52-1.15,2.48c.32,1.63,1,3,2.29,3.33C305.52,84,305.87,83,305.5,81.17Z" transform="translate(-2.04 -2)"/><path class="cls-10" d="M311.36,83.39a3.58,3.58,0,0,0,2.14,2.77c.94.24,1.11-.12,1.2-.64l2.26.6c0,1.07-.5,2.72-3.07,2.06s-4.36-3.33-4.89-5.82c-.63-3,.22-4.75,2.8-4,2.77.77,4.24,3.36,4.77,5.7a7.5,7.5,0,0,1,.15.78Zm2.78-.76a3,3,0,0,0-1.93-2.43c-1.07-.29-1.32.45-1.15,1.59Z" transform="translate(-2.04 -2)"/><path class="cls-10" d="M320.26,87a2.69,2.69,0,0,0,1.82,1.56c.84.22,1.06,0,.92-.6s-.55-.92-1.79-1.56c-2.82-1.45-3.47-2.51-3.78-3.83s.18-2.59,2.61-1.91a5.72,5.72,0,0,1,4,3.71l-2.13-.58a2.23,2.23,0,0,0-1.56-1.35c-.74-.21-.89.1-.79.52s.41.76,1.81,1.46c2.88,1.45,3.52,2.61,3.86,4,.37,1.52-.31,2.65-2.81,2a6,6,0,0,1-4.39-4Z" transform="translate(-2.04 -2)"/><path class="cls-10" d="M324.24,82l1.24.35-.62-2.48,2.21.64.64,2.47,1.58.44.49,1.89-1.58-.43,1.15,4.5a1.38,1.38,0,0,0,1.11,1.19c.13,0,.35.08.51.1l.45,1.74a4.66,4.66,0,0,1-1.48-.22,3.76,3.76,0,0,1-2.77-3.11L326,84.29,324.71,84Z" transform="translate(-2.04 -2)"/><path class="cls-10" d="M278.82,100.81l.68,4.8-2.35-.47-1.6-11.65c-.12-.83-.23-1.64-.36-2.47l2.25.51c.07.28.2.91.25,1.28.25-.66.89-1.25,2.22-.94,1.88.42,3.62,2.64,4.09,5.76.54,3.55-.81,5.18-2.87,4.76A3.44,3.44,0,0,1,278.82,100.81Zm2.83-3.58c-.27-1.85-1-3-2.16-3.28-1.32-.3-1.64.62-1.35,2.67s.87,3.16,2.14,3.43S282,99.28,281.65,97.23Z" transform="translate(-2.04 -2)"/><path class="cls-10" d="M287.71,99.25c.2,1.25.92,2.58,2.09,2.82,1,.21,1.18-.2,1.3-.75l2.35.5c-.1,1.14-.69,2.94-3.36,2.4s-4.4-3.29-4.81-5.93c-.48-3.14.51-5.09,3.2-4.48,2.87.66,4.27,3.34,4.69,5.8.05.34.09.56.11.83Zm3-1a2.77,2.77,0,0,0-1.89-2.48c-1.12-.24-1.42.57-1.32,1.78Z" transform="translate(-2.04 -2)"/><path class="cls-10" d="M294.46,98c-.17-1-.32-1.85-.48-2.68l2.27.52c.07.23.27,1.21.37,1.74.17-1,.91-1.66,2.33-1.34l.48,2.57c-1.7-.42-2.61-.11-2.14,2.58l.76,4.28-2.35-.49Z" transform="translate(-2.04 -2)"/><path class="cls-10" d="M303.36,103.91a2.42,2.42,0,0,0,1.83,1.54c.87.18,1.11-.11,1-.69s-.53-.94-1.81-1.54c-2.9-1.37-3.53-2.45-3.78-3.82s.32-2.76,2.84-2.18a5.19,5.19,0,0,1,4.05,3.68l-2.22-.49a2,2,0,0,0-1.57-1.34c-.77-.17-.94.17-.86.61s.4.77,1.83,1.44c3,1.36,3.58,2.54,3.86,3.95.32,1.59-.46,2.82-3.06,2.29a5.44,5.44,0,0,1-4.41-3.94Z" transform="translate(-2.04 -2)"/><path class="cls-10" d="M317.59,105.1c.62,2.86-.46,4.64-3.15,4.09s-4.6-3-5.18-5.83.54-4.7,3.19-4.1C314.91,99.82,316.94,102.15,317.59,105.1Zm-6-1.27c.38,1.84,1.31,3.08,2.44,3.31s1.55-.71,1.16-2.51c-.42-2-1.27-3.07-2.43-3.33S311.2,101.82,311.62,103.83Z" transform="translate(-2.04 -2)"/><path class="cls-10" d="M318.69,103.14c-.18-.8-.37-1.68-.55-2.37l2.25.5c.1.26.28.91.36,1.22.15-.53.64-1.19,2.1-.86,1.68.38,3.08,1.89,3.63,4.21l1.42,5.9-2.36-.48-1.32-5.64a2.43,2.43,0,0,0-1.76-2.1c-1-.22-1.41.27-1,1.92l1.19,5.22-2.35-.49Z" transform="translate(-2.04 -2)"/><path class="cls-10" d="M330,108l-1.71-5.77-.52-2.12,2.45.57.54,2.13,1.13,5.6Zm.86,4.39-.72-2.94,2.3.48.73,2.94Z" transform="translate(-2.04 -2)"/><path class="cls-10" d="M279.27,119.65l.89,6.51-.58-.08-.89-6.53Z" transform="translate(-2.04 -2)"/><path class="cls-10" d="M280.33,121.6l.73.12-.2-1.43.54.09.2,1.43.93.15.07.54-.93-.15.41,2.9c.07.49.21.78.59.84a1.61,1.61,0,0,0,.38,0l.07.5a1.18,1.18,0,0,1-.53,0c-.58-.09-.91-.47-1-1.23l-.43-3.11-.73-.12Z" transform="translate(-2.04 -2)"/><path class="cls-10" d="M283.28,122.26a10.34,10.34,0,0,0,0-2.28l.55.09a8.88,8.88,0,0,1-.12,2.26Z" transform="translate(-2.04 -2)"/><path class="cls-10" d="M285.41,125.7a1.5,1.5,0,0,0,1.21,1.06c.67.1.88-.2.81-.67s-.3-.75-1.18-1.12c-1.14-.48-1.45-.9-1.54-1.52s.23-1.21,1.2-1a2,2,0,0,1,1.66,1.56l-.52-.09a1.38,1.38,0,0,0-1.08-1c-.64-.1-.78.23-.73.57s.27.62,1.08,1c1.23.51,1.56,1,1.67,1.69s-.38,1.29-1.31,1.15a2.2,2.2,0,0,1-1.82-1.67Z" transform="translate(-2.04 -2)"/><path class="cls-10" d="M291,123.35l.77,4.84c.2,1.26,0,1.64-.8,1.52l-.25-.06-.09-.54.17,0c.54.08.55-.24.44-.94l-.78-4.94Zm-.72-1.28-.15-.94.54.09.14.94Z" transform="translate(-2.04 -2)"/><path class="cls-10" d="M296,127.3c.07.44.19,1.11.23,1.33l-.52-.08a5.59,5.59,0,0,1-.15-.75c-.1.5-.45.77-1.14.66s-1.39-.52-1.6-1.88l-.49-3,.53.09.47,2.89a1.44,1.44,0,0,0,1.12,1.39c.84.13,1.07-.35.87-1.58l-.4-2.37.54.09Z" transform="translate(-2.04 -2)"/><path class="cls-10" d="M297.34,127.56a1.56,1.56,0,0,0,1.23,1.05c.67.1.88-.19.8-.66s-.31-.73-1.2-1.09c-1.15-.48-1.46-.89-1.56-1.5s.21-1.18,1.18-1a2.07,2.07,0,0,1,1.68,1.53l-.53-.09a1.37,1.37,0,0,0-1.09-.94c-.64-.1-.77.22-.71.56s.28.6,1.09.93c1.23.51,1.58,1,1.69,1.67s-.35,1.26-1.27,1.12a2.24,2.24,0,0,1-1.85-1.64Z" transform="translate(-2.04 -2)"/><path class="cls-10" d="M299.72,124.76l.72.12-.24-1.38.54.09L301,125l.93.15.09.52-.93-.15.5,2.81c.08.47.23.75.61.81a1.2,1.2,0,0,0,.38,0l.08.49a1.36,1.36,0,0,1-.53,0c-.57-.08-.92-.45-1.05-1.19l-.53-3-.72-.11Z" transform="translate(-2.04 -2)"/><path class="cls-10" d="M304.39,123.51l.53.09.52,2.78c.11-.39.42-.72,1.19-.59a2.92,2.92,0,0,1,2.08,2.51c.26,1.39-.16,2.34-1.31,2.16a1.83,1.83,0,0,1-1.39-1c.05.26.09.53.1.65l-.52-.08-.27-1.52Zm3.76,4.71a2.17,2.17,0,0,0-1.52-1.92c-.94-.15-1.14.5-.93,1.63s.63,1.85,1.57,2C308,130.05,308.37,129.41,308.15,128.22Z" transform="translate(-2.04 -2)"/><path class="cls-10" d="M310,128.69a2.18,2.18,0,0,0,1.56,1.9c.71.11.86-.27.93-.59l.55.08a1.07,1.07,0,0,1-1.4,1,3,3,0,0,1-2.2-2.56c-.24-1.3.14-2.28,1.34-2.09a2.81,2.81,0,0,1,2.09,2.33c0,.12.05.24.06.36Zm2.29-.08a1.91,1.91,0,0,0-1.43-1.64c-.77-.13-1,.41-.92,1.26Z" transform="translate(-2.04 -2)"/><path class="cls-10" d="M317.17,130.59c0,.73-.36,1.32-1.33,1.17a3,3,0,0,1-2.23-2.57c-.25-1.23.15-2.24,1.34-2a2.43,2.43,0,0,1,1.86,1.69l-.54-.09a1.65,1.65,0,0,0-1.22-1.09c-.8-.13-1.1.54-.88,1.6a2.26,2.26,0,0,0,1.57,2c.56.09.82-.17.89-.74Z" transform="translate(-2.04 -2)"/><path class="cls-10" d="M321.08,131.61c.09.39.2.75.25.89l-.52-.08a3.82,3.82,0,0,1-.2-.64c-.08.29-.33.66-1.15.53a2,2,0,0,1-1.63-1.53c-.2-1,.4-1.31,1.61-1.11l.73.11-.08-.41a1.3,1.3,0,0,0-1.17-1.1c-.75-.12-.78.28-.79.61l-.53-.08c-.06-.53.1-1.21,1.23-1a2,2,0,0,1,1.78,1.65Zm-.8-1.38-.74-.12c-.85-.13-1.3,0-1.16.73a1.28,1.28,0,0,0,1.05,1c1.08.16,1.07-.59.88-1.46Z" transform="translate(-2.04 -2)"/><path class="cls-10" d="M325.37,131.9c.09.43.24,1.06.29,1.27l-.53-.08c0-.12-.11-.4-.18-.71-.07.47-.41.72-1.09.61a2,2,0,0,1-1.69-1.79l-.62-2.87.53.08.6,2.74a1.48,1.48,0,0,0,1.18,1.33c.83.13,1-.32.78-1.49l-.5-2.24.54.09Z" transform="translate(-2.04 -2)"/><path class="cls-10" d="M326.75,132.17a1.62,1.62,0,0,0,1.27,1c.67.11.86-.17.76-.61s-.34-.69-1.24-1.05c-1.16-.45-1.49-.85-1.62-1.42s.15-1.11,1.12-1a2.17,2.17,0,0,1,1.74,1.46l-.52-.08a1.47,1.47,0,0,0-1.13-.9c-.64-.1-.75.2-.68.52s.3.57,1.12.89c1.25.49,1.62,1,1.76,1.59s-.28,1.19-1.21,1.05a2.35,2.35,0,0,1-1.91-1.57Z" transform="translate(-2.04 -2)"/><path class="cls-10" d="M330.33,131.91a2.24,2.24,0,0,0,1.62,1.84c.7.11.84-.26.9-.57l.55.09c0,.53-.3,1.14-1.36,1a3.05,3.05,0,0,1-2.27-2.48c-.29-1.25.06-2.19,1.26-2a2.85,2.85,0,0,1,2.15,2.24c0,.13.06.24.08.35Zm2.28-.07a2,2,0,0,0-1.48-1.58c-.78-.13-1,.39-.88,1.21Z" transform="translate(-2.04 -2)"/><path class="cls-10" d="M335.89,130.67c1.07,2.18,1.69,3.43,1.86,3.84h0c0-.35,0-1.5.1-3.52l.55.09c1.33,2.61,1.73,3.37,1.89,3.73h0c0-.44,0-1,.07-3.41l.55.09-.18,4-.59-.09c-.81-1.58-1.69-3.3-1.88-3.73h0c0,.42,0,1.76-.09,3.42l-.63-.09-2.23-4.43Z" transform="translate(-2.04 -2)"/><path class="cls-10" d="M342.5,133.83a2.28,2.28,0,0,0,1.65,1.81c.71.11.84-.25.89-.55l.55.08c0,.52-.28,1.12-1.33,1a3.12,3.12,0,0,1-2.32-2.43c-.31-1.22,0-2.14,1.21-1.94a2.94,2.94,0,0,1,2.2,2.2c0,.12.06.23.08.34Zm2.27-.05a2,2,0,0,0-1.51-1.55c-.77-.13-1,.38-.85,1.18Z" transform="translate(-2.04 -2)"/><path class="cls-10" d="M349,136.76l-1.66-6,.54.09,1.66,6Z" transform="translate(-2.04 -2)"/><path class="cls-10" d="M353.61,135.5c.33,1.16,0,2.06-1.26,1.87a3.24,3.24,0,0,1-2.42-2.44c-.34-1.2.06-2.06,1.25-1.86A3.29,3.29,0,0,1,353.61,135.5Zm-3.12-.48a2.46,2.46,0,0,0,1.75,1.87c.82.13,1.09-.48.81-1.47a2.46,2.46,0,0,0-1.76-1.87C350.44,133.41,350.22,134.05,350.49,135Z" transform="translate(-2.04 -2)"/><path class="cls-10" d="M354.07,133.63c1.12,1.88,1.91,3.21,2.2,3.75h0c0-.36.08-1.5.2-3.35l.56.09-.32,3.83-.62-.1-2.61-4.31Z" transform="translate(-2.04 -2)"/><path class="cls-10" d="M358.64,136.39a2.33,2.33,0,0,0,1.69,1.75c.71.11.83-.23.87-.52l.55.08c0,.5-.25,1.08-1.3.91a3.18,3.18,0,0,1-2.38-2.35c-.35-1.19-.05-2.07,1.15-1.88a3,3,0,0,1,2.25,2.14,2.77,2.77,0,0,1,.09.33Zm2.25,0a2.09,2.09,0,0,0-1.54-1.51c-.78-.12-1,.36-.81,1.13Z" transform="translate(-2.04 -2)"/><path class="cls-10" d="M280.39,132.58c1.1,2.6,1.63,3.82,1.82,4.33h0c.07-.54.24-1.58.63-4l.56.08-.83,4.72c-.24,1.33-.5,1.62-1.3,1.51a2.12,2.12,0,0,1-.41-.08l-.08-.58.36.08c.57.07.72-.2.88-1l-2.23-5.11Z" transform="translate(-2.04 -2)"/><path class="cls-10" d="M287.94,135.91c.2,1.32-.29,2.36-1.54,2.19a2.9,2.9,0,0,1-2.2-2.69c-.19-1.35.32-2.36,1.53-2.18A2.89,2.89,0,0,1,287.94,135.91Zm-3.17-.42a2.23,2.23,0,0,0,1.58,2.07c.83.11,1.19-.6,1-1.71a2.22,2.22,0,0,0-1.59-2.08C284.92,133.65,284.61,134.39,284.77,135.49Z" transform="translate(-2.04 -2)"/><path class="cls-10" d="M292.26,137.45c.07.45.18,1.13.22,1.35l-.54-.07c0-.12-.09-.42-.14-.76-.1.51-.47.79-1.16.69s-1.41-.49-1.62-1.86l-.46-3.07.54.08.44,2.92c.1.65.38,1.29,1.13,1.39s1.09-.38.9-1.62l-.37-2.39.55.07Z" transform="translate(-2.04 -2)"/><path class="cls-10" d="M295.46,136.45l3.28-1.74.11.65-2.77,1.42,3.4,2.34.11.64-4-2.78Z" transform="translate(-2.04 -2)"/><path class="cls-10" d="M300.08,135.34a1.08,1.08,0,0,1,1.37-1.25,2.11,2.11,0,0,1,1.82,1.73c.13.72-.2,1.05-.52,1.13v0a2.14,2.14,0,0,1,1.24,1.65c.17,1-.23,1.78-1.49,1.61a2.48,2.48,0,0,1-2.07-1.85l.55.08a1.86,1.86,0,0,0,1.46,1.24c.86.12,1.09-.47,1-1.15a1.64,1.64,0,0,0-1.49-1.42l-.35,0-.09-.52.28,0c.77.1,1.05-.19.93-.86a1.36,1.36,0,0,0-1.17-1.13c-.68-.09-.89.27-.92.79Z" transform="translate(-2.04 -2)"/><path class="cls-10" d="M283.17,153.75a1,1,0,0,1,1.22-1.13,1.65,1.65,0,0,1,1.52,1.44c.09.62-.2.92-.48,1v0a1.67,1.67,0,0,1,1,1.39c.12.84-.25,1.56-1.34,1.45a2,2,0,0,1-1.73-1.53l.48,0a1.46,1.46,0,0,0,1.22,1c.74.07,1-.45.87-1a1.28,1.28,0,0,0-1.24-1.18l-.3,0-.06-.45.24,0c.66.06.91-.21.83-.78a1.07,1.07,0,0,0-1-.94c-.58-.06-.78.26-.81.72Z" transform="translate(-2.04 -2)"/><path class="cls-10" d="M291.85,157.7a6.1,6.1,0,0,0,.17.79l-.46-.05a2.68,2.68,0,0,1-.14-.56c-.08.26-.33.61-1,.54a1.49,1.49,0,0,1-1.36-1.29c-.12-.86.43-1.19,1.49-1.09l.64.07,0-.37a1,1,0,0,0-1-.92c-.66-.07-.71.29-.74.6l-.46,0c0-.47.15-1.09,1.14-1a1.51,1.51,0,0,1,1.49,1.38Zm-.64-1.2-.64-.06c-.75-.08-1.15.1-1.06.71a1,1,0,0,0,.87.84c.94.09,1-.58.85-1.36Z" transform="translate(-2.04 -2)"/><path class="cls-10" d="M295.85,158.55c.19,1.23-.19,1.86-1.29,1.76A1.74,1.74,0,0,1,293,159l.49.05a1.23,1.23,0,0,0,1.08.81c.87.08,1-.5.86-1.44l-.06-.36c-.12.45-.41.68-1,.62a2.22,2.22,0,0,1-1.76-2.06c-.19-1.28.37-2,1.21-1.87a1.39,1.39,0,0,1,1.19.75c0-.2-.05-.46-.06-.55l.45,0c0,.18.1.74.16,1.11ZM293,156.66a1.69,1.69,0,0,0,1.28,1.58c.84.08,1-.5.85-1.43s-.49-1.51-1.29-1.59S292.88,155.8,293,156.66Z" transform="translate(-2.04 -2)"/><path class="cls-10" d="M296.56,156.16c-.1-.59-.15-.88-.18-1l.47,0c0,.11.07.38.14.82a1,1,0,0,1,1.07-.79l.09.52c-.73,0-1.13.41-1,1.35l.3,1.93-.47,0Z" transform="translate(-2.04 -2)"/><path class="cls-10" d="M299.23,157.37c.16.89.67,1.51,1.32,1.57a.67.67,0,0,0,.83-.57l.48,0a1,1,0,0,1-1.26,1,2.3,2.3,0,0,1-1.85-2.12c-.18-1.11.18-2,1.23-1.88a2.16,2.16,0,0,1,1.77,1.91,1.87,1.87,0,0,1,0,.32Zm2-.19a1.47,1.47,0,0,0-1.21-1.35c-.68-.07-.9.41-.85,1.14Z" transform="translate(-2.04 -2)"/><path class="cls-10" d="M302.88,157.72c.16.89.67,1.51,1.32,1.57a.67.67,0,0,0,.84-.56l.47,0a1,1,0,0,1-1.25,1,2.29,2.29,0,0,1-1.86-2.1c-.19-1.11.17-2,1.22-1.87a2.19,2.19,0,0,1,1.78,1.9c0,.11,0,.21,0,.31Zm2-.18a1.5,1.5,0,0,0-1.22-1.35c-.68-.06-.9.41-.84,1.14Z" transform="translate(-2.04 -2)"/><path class="cls-10" d="M308.49,154.64l.8,4.42c.06.36.12.71.2,1.08l-.46,0c0-.1-.1-.43-.13-.59-.1.41-.43.62-1,.56a2.25,2.25,0,0,1-1.81-2.07c-.21-1.17.24-2,1.21-1.87a1.44,1.44,0,0,1,1.15.64l-.39-2.18ZM306.54,158c.17,1,.72,1.55,1.31,1.6.89.09,1-.56.82-1.49s-.45-1.47-1.31-1.56C306.7,156.51,306.36,157,306.54,158Z" transform="translate(-2.04 -2)"/><path class="cls-11" d="M380.47,164.55c1,3-.85,5.22-4.12,4.93a9.39,9.39,0,0,1-7.6-6.1c-.93-3.08.91-5.28,4.12-4.93A9.81,9.81,0,0,1,380.47,164.55Z" transform="translate(-2.04 -2)"/><path class="cls-10" d="M357.12,164.55l-.49-1.78a.47.47,0,0,0-.07-.12L354,159.58l.58.06c.69.85,1.84,2.26,2.16,2.67.11-.36.55-1.6.82-2.35l.54,0-1,2.72a.15.15,0,0,0,0,.11l.49,1.76Z" transform="translate(-2.04 -2)"/><path class="cls-10" d="M361.86,163.33c.27,1-.05,1.75-1.12,1.64a2.55,2.55,0,0,1-2.1-1.94c-.28-1,.07-1.75,1.12-1.64A2.57,2.57,0,0,1,361.86,163.33Zm-2.73-.26a2,2,0,0,0,1.52,1.51c.71.06,1-.46.72-1.29a1.92,1.92,0,0,0-1.52-1.5C359.11,161.71,358.91,162.27,359.13,163.07Z" transform="translate(-2.04 -2)"/><path class="cls-10" d="M365.64,164.4l.3,1-.46,0a5.42,5.42,0,0,1-.18-.56c-.05.38-.33.59-.93.53a1.7,1.7,0,0,1-1.53-1.35l-.64-2.25.46.05.62,2.14a1.22,1.22,0,0,0,1.08,1c.73.07.89-.29.62-1.2l-.51-1.76.47.05Z" transform="translate(-2.04 -2)"/><path class="cls-10" d="M372.92,162l.75,2.38a1.54,1.54,0,0,0,1.39,1.22c.59.06.9-.14.63-1l-.76-2.37,1.08.11.77,2.4c.4,1.27-.16,1.8-1.5,1.67a2.86,2.86,0,0,1-2.68-2.06l-.76-2.44Z" transform="translate(-2.04 -2)"/></g></g></svg>